<svg xmlns="http://www.w3.org/2000/svg">
<defs>
<clipPath id="clip0_549_4372">
<rect width="239.96" height="211.944" fill="white"/>
</clipPath>


<clipPath id="clip0_549_4399">
<rect width="265.539" height="182.71" fill="white"/>
</clipPath>


<clipPath id="clip0_549_4408">
<rect width="253.358" height="209.508" fill="white"/>
</clipPath>


<clipPath id="clip0_549_4421">
<rect width="242.396" height="202.199" fill="white"/>
</clipPath>


<linearGradient id="paint0_linear_2001_3792" x1="25.3215" y1="35.7803" x2="6.66679" y2="5.50114" gradientUnits="userSpaceOnUse">
<stop stop-color="#FAB942"/>
<stop offset="0.0482" stop-color="#F7A600"/>
<stop offset="0.0807" stop-color="#F8AA02"/>
<stop offset="0.1379" stop-color="#FAB536"/>
<stop offset="0.213" stop-color="#FCC66A"/>
<stop offset="0.3022" stop-color="#FEDDA8"/>
<stop offset="0.3342" stop-color="#FFE5BF"/>
<stop offset="0.5043" stop-color="#FEDBA5"/>
<stop offset="0.6448" stop-color="#FDD494"/>
<stop offset="0.8695" stop-color="#FAB949"/>
<stop offset="0.9761" stop-color="#F7A700"/>
<stop offset="1" stop-color="#F7A700"/>
</linearGradient>
<linearGradient id="paint1_linear_2001_3792" x1="32.0825" y1="23.7382" x2="16.2507" y2="-1.95901" gradientUnits="userSpaceOnUse">
<stop stop-color="#FAB942"/>
<stop offset="0.0482" stop-color="#F7A600"/>
<stop offset="0.0807" stop-color="#F8AA02"/>
<stop offset="0.1379" stop-color="#FAB536"/>
<stop offset="0.213" stop-color="#FCC66A"/>
<stop offset="0.3022" stop-color="#FEDDA8"/>
<stop offset="0.3342" stop-color="#FFE5BF"/>
<stop offset="0.5043" stop-color="#FEDBA5"/>
<stop offset="0.6448" stop-color="#FDD494"/>
<stop offset="0.8695" stop-color="#FAB949"/>
<stop offset="0.9761" stop-color="#F7A700"/>
<stop offset="1" stop-color="#F7A700"/>
</linearGradient>
<linearGradient id="paint2_linear_2001_3792" x1="33.1324" y1="29.0395" x2="-1.0007" y2="6.74631" gradientUnits="userSpaceOnUse">
<stop stop-color="#007FBF"/>
<stop offset="0.2685" stop-color="#3FA1D3"/>
<stop offset="0.3648" stop-color="#00A8E8"/>
<stop offset="0.5171" stop-color="#1D71B8"/>
<stop offset="0.7447" stop-color="#004B97"/>
<stop offset="0.9859" stop-color="#243889"/>
<stop offset="1" stop-color="#243889"/>
</linearGradient>
<linearGradient id="paint3_linear_2001_3792" x1="14.474" y1="-2.30763" x2="2.32616" y2="18.0021" gradientUnits="userSpaceOnUse">
<stop stop-color="#007FBF"/>
<stop offset="0.09" stop-color="#3FA1D3"/>
<stop offset="0.218" stop-color="#00A8E8"/>
<stop offset="0.5171" stop-color="#1D71B8"/>
<stop offset="0.7447" stop-color="#004B97"/>
<stop offset="0.9859" stop-color="#243889"/>
<stop offset="1" stop-color="#243889"/>
</linearGradient>


<linearGradient id="paint0_linear_2001_1493" x1="50.2412" y1="70.9916" x2="13.2278" y2="10.9138" gradientUnits="userSpaceOnUse">
<stop stop-color="#FAB942"/>
<stop offset="0.0482" stop-color="#F7A600"/>
<stop offset="0.0807" stop-color="#F8AA02"/>
<stop offset="0.1379" stop-color="#FAB536"/>
<stop offset="0.213" stop-color="#FCC66A"/>
<stop offset="0.3022" stop-color="#FEDDA8"/>
<stop offset="0.3342" stop-color="#FFE5BF"/>
<stop offset="0.5043" stop-color="#FEDBA5"/>
<stop offset="0.6448" stop-color="#FDD494"/>
<stop offset="0.8695" stop-color="#FAB949"/>
<stop offset="0.9761" stop-color="#F7A700"/>
<stop offset="1" stop-color="#F7A700"/>
</linearGradient>
<linearGradient id="paint1_linear_2001_1493" x1="63.6551" y1="47.0992" x2="32.2427" y2="-3.8874" gradientUnits="userSpaceOnUse">
<stop stop-color="#FAB942"/>
<stop offset="0.0482" stop-color="#F7A600"/>
<stop offset="0.0807" stop-color="#F8AA02"/>
<stop offset="0.1379" stop-color="#FAB536"/>
<stop offset="0.213" stop-color="#FCC66A"/>
<stop offset="0.3022" stop-color="#FEDDA8"/>
<stop offset="0.3342" stop-color="#FFE5BF"/>
<stop offset="0.5043" stop-color="#FEDBA5"/>
<stop offset="0.6448" stop-color="#FDD494"/>
<stop offset="0.8695" stop-color="#FAB949"/>
<stop offset="0.9761" stop-color="#F7A700"/>
<stop offset="1" stop-color="#F7A700"/>
</linearGradient>
<linearGradient id="paint2_linear_2001_1493" x1="65.7374" y1="57.6187" x2="-1.98714" y2="13.386" gradientUnits="userSpaceOnUse">
<stop stop-color="#007FBF"/>
<stop offset="0.2685" stop-color="#3FA1D3"/>
<stop offset="0.3648" stop-color="#00A8E8"/>
<stop offset="0.5171" stop-color="#1D71B8"/>
<stop offset="0.7447" stop-color="#004B97"/>
<stop offset="0.9859" stop-color="#243889"/>
<stop offset="1" stop-color="#243889"/>
</linearGradient>
<linearGradient id="paint3_linear_2001_1493" x1="28.7186" y1="-4.57864" x2="4.61571" y2="35.7186" gradientUnits="userSpaceOnUse">
<stop stop-color="#007FBF"/>
<stop offset="0.09" stop-color="#3FA1D3"/>
<stop offset="0.218" stop-color="#00A8E8"/>
<stop offset="0.5171" stop-color="#1D71B8"/>
<stop offset="0.7447" stop-color="#004B97"/>
<stop offset="0.9859" stop-color="#243889"/>
<stop offset="1" stop-color="#243889"/>
</linearGradient>
</defs>
<symbol id="alert" viewBox="0 0 22 22">
  <path stroke="currentColor" stroke-linecap="round" stroke-linejoin="round" stroke-width="2" d="M11 15v-4m0-4h-.01M1 11C1 5.477 5.477 1 11 1s10 4.477 10 10-4.477 10-10 10S1 16.523 1 11Z"/>
</symbol>
<symbol id="arrow1" viewBox="0 0 24 24">
  <path d="M23.584 1.332C23.584.596 22.988 0 22.253 0H10.265a1.332 1.332 0 0 0 0 2.664h10.656v10.655a1.332 1.332 0 1 0 2.663 0V1.332ZM.941 22.643l.942.942L23.194 2.274l-.941-.942L21.31.39 0 21.701l.941.942Z"/>
</symbol>
<symbol id="arrow2" viewBox="0 0 25 15">
  <path d="M24.707 8.071a1 1 0 0 0 0-1.414L18.343.293a1 1 0 1 0-1.414 1.414l5.657 5.657-5.657 5.657a1 1 0 0 0 1.414 1.414l6.364-6.364ZM0 7.364v1h24v-2H0v1Z"/>
</symbol>
<symbol id="arrow3" viewBox="0 0 14 8">
  <path stroke="currentColor" stroke-linecap="round" stroke-linejoin="round" stroke-width="2" d="m1 1 6 6 6-6"/>
</symbol>
<symbol id="check1" viewBox="0 0 18 13">
  <path stroke="currentColor" stroke-linecap="round" stroke-linejoin="round" stroke-width="2" d="M17 1 6 12 1 7"/>
</symbol>
<symbol id="close" viewBox="0 0 24 24">
  <path stroke="currentColor" stroke-linecap="round" stroke-linejoin="round" stroke-width="2" d="M23 1 1 23M1 1l22 22"/>
</symbol>
<symbol id="icon1" viewBox="0 0 240 212">
<g clip-path="url(#clip0_549_4372)">
<path d="M97.3809 0H102.352C103.543 3.22596 104.424 7.60566 105.661 11.028C106.65 14.1524 108.021 17.2024 109.114 20.2807C111.639 27.3898 114.289 34.3254 117.602 41.1074C119.406 44.8021 120.822 49.0834 122.653 52.7179C128.138 63.6119 134.185 74.8595 134.025 87.4128C134.152 98.5396 130.567 103.758 127.35 113.939C125.879 119.117 124.276 124.839 126.974 129.901C132.076 139.471 144.74 136.358 153.679 138.796C163.187 141.39 170.33 147.954 175.924 155.856C177.673 158.326 179.185 161.024 181.173 163.258C186.523 169.201 193.423 173.533 201.099 175.766C205.093 176.966 212.422 178.193 216.499 177.007C217.393 176.747 218.463 176.173 219.3 175.724C218.049 174.557 215.922 171.623 214.16 169.946C208.792 164.833 202.19 158.953 197.998 152.803C193.877 146.375 190.557 139.538 187.194 132.678C181.996 122.076 175.97 111.068 171.027 100.414C168.853 95.7297 165.897 85.946 165.209 81.177C166.581 81.2501 168.312 81.2194 169.712 81.2348C171.429 85.5653 172.056 90.4961 173.812 94.9308C175.177 98.379 176.669 101.123 178.297 104.431L187.208 122.169L194.939 137.497C196.48 140.594 197.962 144.106 199.831 147.088C202.42 151.219 205.593 154.779 208.891 158.46C213.241 163.384 220.022 167.208 222.8 173.291C224.294 176.558 222.292 180.111 218.949 181.051C214.371 182.338 209.146 181.837 204.53 181.216C189.352 179.171 178.025 169.04 170.461 156.29C168.838 153.582 162.387 147.946 159.433 146.185C150.643 140.948 139.207 143.618 130.089 139.189C120.721 134.408 119.172 125.348 121.731 115.932C124.324 106.39 128.384 101.383 129.024 90.9722C129.414 85.0309 128.726 79.0679 126.99 73.3725C125.726 69.3309 123.684 65.9241 121.959 62.105C119.093 55.762 116.21 49.4589 113.171 43.1956C111.983 40.6583 111.136 37.8101 109.962 35.2829C104.667 23.8878 101.297 11.9142 97.3809 0Z" fill="#00448B"/>
<path d="M73.6805 0H78.3643C76.3558 6.7068 73.3727 12.8549 70.9983 19.2466C67.221 29.7802 64.4044 41.0662 57.5159 50.1401C52.4205 56.8517 46.2176 61.2971 38.6295 64.9155C32.2534 67.9558 21.6794 71.5394 18.7074 78.5124C15.9801 84.9117 19.3171 91.4755 23.8446 95.928C26.3259 99.1506 29.729 102.693 31.5821 106.243C37.4547 117.492 35.0565 129.314 33.309 141.136C32.7403 147.705 33.8627 155.406 36.4535 161.396C37.8591 164.645 47.0524 178.908 50.7387 177.156C51.2774 176.629 51.6084 175.907 51.6466 175.153C51.7455 168.491 51.4749 161.762 51.574 155.09C51.7374 144.087 55.3966 135.61 58.7428 125.378C61.2742 117.637 63.6063 109.588 66.4825 101.909C68.1236 97.7074 69.1087 92.3254 71.0865 88.3171C74.7605 80.8713 78.9815 73.3409 83.7056 66.5148C86.4298 62.5783 89.51 56.7699 93.0152 53.5982L93.0974 53.5247C95.5154 54.6826 96.1691 56.0025 94.7347 58.5077C92.8104 61.8684 90.0795 64.9279 88.0892 68.2557C84.2348 74.7007 79.7544 80.816 76.6672 87.6806C72.3769 97.3887 69.5836 107.612 66.2608 117.644C61.6304 131.622 55.6668 145.237 56.2623 160.322C56.3581 162.746 56.3176 165.196 56.4394 167.623C56.5064 172.066 57.6011 179.816 52.1216 181.586C46.3044 183.466 40.2802 175.945 37.2325 171.788C30.8926 163.141 27.2653 150.599 28.5298 139.864C30.4878 130.979 32.0217 123.967 29.9169 114.882C26.9457 102.058 12.5116 96.2145 13.2627 82.5095C14.1114 67.0209 31.6981 64.196 42.4001 57.7688C47.5599 54.6702 52.448 49.2273 55.7775 44.2886C59.6416 39.1643 60.943 32.8279 63.2503 26.9966C66.8067 18.0079 69.5745 8.749 73.6805 0Z" fill="#00448B"/>
<path d="M152.271 0H156.71C157.016 2.7585 157.306 5.51884 157.579 8.28088L153.15 8.22628L152.271 0Z" fill="#00448B"/>
<path d="M162.576 12.8043C179.297 11.4599 193.942 23.9318 195.286 40.6619C196.631 57.3919 184.167 72.0454 167.447 73.3922C150.724 74.739 136.077 62.2666 134.732 45.535C133.387 28.8032 145.854 14.1489 162.576 12.8043Z" fill="#00448B"/>
<path d="M162.065 18.1086C175.823 16.5113 188.27 26.3725 189.872 40.1371C191.473 53.9014 181.621 66.3596 167.865 67.9663C154.102 69.5739 141.643 59.7111 140.042 45.9399C138.44 32.1687 148.301 19.7067 162.065 18.1086Z" fill="#E8E8E8"/>
<path d="M163.092 26.3803C172.322 25.3597 180.623 32.0411 181.604 41.2808C182.585 50.5202 175.872 58.7972 166.633 59.7391C157.45 60.6757 149.238 54.008 148.263 44.8238C147.288 35.6394 153.917 27.3947 163.092 26.3803Z" fill="#00448B"/>
<path d="M163.323 31.7227C169.555 30.8207 175.34 35.1374 176.254 41.3711C177.167 47.6048 172.864 53.4016 166.636 54.3276C160.39 55.2563 154.577 50.9363 153.661 44.6856C152.745 38.4349 157.074 32.6272 163.323 31.7227Z" fill="#E8E8E8"/>
<path d="M164.57 39.4927C165.882 39.8224 167.898 40.6857 168.53 41.9768C169.875 44.7257 167.224 45.5128 165.375 46.3821C164.178 46.7068 162.306 45.8096 161.894 44.6145C160.892 41.7055 162.288 40.5791 164.57 39.4927Z" fill="#00448B"/>
<path d="M163.908 41.9387C164.285 41.6415 164.796 41.579 165.233 41.7768C165.67 41.9745 165.961 42.3994 165.987 42.8788C166.013 43.3583 165.77 43.8124 165.357 44.0565C164.775 44.4007 164.025 44.2343 163.643 43.6756C163.261 43.1172 163.376 42.3578 163.908 41.9387Z" fill="#E8E8E8"/>
<path d="M57.4153 68.7688C58.1596 68.6554 59.1606 68.8914 59.6316 69.4717C61.9364 72.3119 58.4585 73.4519 56.3032 74.0952C55.001 74.4839 53.4326 75.0967 52.3784 75.9031C50.3431 77.4596 51.1341 81.8932 49.2314 83.3321C43.9939 82.9803 45.3199 77.6448 47.4574 74.5627C50.0868 70.7711 53.0168 69.5088 57.4153 68.7688Z" fill="#00448B"/>
<path d="M147.908 92.9282C148.265 92.9769 148.621 93.0348 148.976 93.1023C153.314 93.9583 149.417 98.654 148.559 100.742C148.171 101.686 147.976 102.602 147.76 103.598C148.062 104.275 148.132 104.625 148.599 105.251C149.887 106.974 152.922 109.557 149.905 111.273C145.583 112.24 143.662 106.705 143.591 103.281C143.505 99.0822 145.077 95.9296 147.908 92.9282Z" fill="#00448B"/>
</g>

</symbol>
<symbol id="icon2" viewBox="0 0 293 216">
<path d="M195.585 135.05C205.878 134.6 225.924 135.033 231.821 144.948C236.914 153.508 233.64 172.572 231.935 182.086C234.054 181.985 245.701 181.75 246.81 182.586C247.198 182.879 247.406 183.341 247.488 183.811C247.61 184.524 247.551 185.443 247.093 186.031C246.688 186.551 246.029 186.748 245.401 186.816C244.16 186.949 242.818 186.799 241.566 186.801C239.3 186.804 237.032 186.882 234.766 186.897L207.51 186.855L171.224 186.857C163.356 186.89 155.51 186.964 147.632 186.809C145.937 187.008 144.193 185.366 144.85 183.671C145.706 181.461 152.824 181.967 154.901 181.927C152.639 171.843 152.079 165.582 152.685 155.306C149.888 156.572 146.861 157.739 144.006 159.007C139.051 161.245 134.122 163.543 129.222 165.899C115.907 172.122 103.255 177.405 87.8421 179.784C78.2355 181.267 58.6713 183.039 48.4216 179.432C46.8934 178.894 47.8523 175.488 50.3615 175.67C53.8597 175.925 57.5174 176.403 61.1021 176.603C68.9677 176.996 76.8528 176.636 84.6501 175.527C104.173 172.801 121.349 164.718 138.783 156.114C143.246 153.912 147.956 152.391 152.477 150.367C155.637 148.953 158.236 145.269 161.353 143.623C171.852 137.742 183.715 135.626 195.585 135.05Z" fill="#00448B"/>
<path d="M195.892 139.685C204.104 139.246 223.633 139.88 227.993 147.842C231.947 155.061 228.997 173.753 226.863 181.719C222.906 182.194 216.661 182.076 212.635 182.078L190.848 182.075L173.679 182.076C169.144 182.079 164.373 182.181 159.868 181.686C158.022 174.113 153.993 156.411 160.187 150.511C168.069 143.003 185.319 140.212 195.892 139.685Z" fill="#E8E8E8"/>
<path d="M184.084 147.865C185.074 147.711 186.757 147.608 187.57 148.224C188.005 149.133 188.463 151.379 187.155 151.785C181.28 153.611 173.654 154.437 168.672 158.261C168.09 161.626 168.713 165.528 168.954 168.921C169.127 171.36 169.658 172.81 168.395 175.032L167.689 175.373C165.113 175.311 164.595 173.04 164.373 170.931C164.076 168.111 162.891 157.14 164.829 155.223C168.349 151.739 179.15 148.55 184.084 147.865Z" fill="#00448B"/>
<path d="M199.014 146.412C200.635 146.483 202.989 146.858 203.257 148.754C202.561 151.126 199.443 151.253 197.448 151.392C195.809 151.417 193.008 151.362 192.477 149.361C192.599 146.551 197.059 146.521 199.014 146.412Z" fill="#00448B"/>
<path d="M227.054 21.1239C241.961 20.8555 246.252 61.901 246.256 72.6061C246.26 81.899 244.807 90.4281 247.854 99.6656C252.277 113.071 267.011 134.695 247.564 143.191C246.004 143.875 240.376 145.888 238.889 145.213C238.309 144.954 237.872 144.455 237.687 143.846C237.494 143.222 237.612 142.527 237.927 141.964C238.981 140.076 241.953 140.12 243.769 139.584C246.907 138.658 250.049 136.636 251.615 133.683C255.694 125.99 244.74 106.621 242.413 98.0225C240.115 89.5257 241.505 81.3288 241.451 72.7211C241.39 62.7977 239.416 49.4079 236.453 39.9439C235.262 36.1391 232.532 28.1114 228.674 26.1972C228.025 25.8759 227.178 25.7415 226.485 25.9896C226.145 26.1119 225.826 26.3106 225.551 26.5467C223.003 28.738 223.776 35.8892 223.852 39.0499C224.19 53.1657 224.371 60.6933 219.261 74.3408C218.242 77.0602 217.232 79.8144 216.01 82.4495C209.659 96.1274 201.945 105.549 187.43 110.85C182.424 112.754 175.776 113.349 170.482 114.317C161.488 115.96 152.598 116.525 143.519 117.394C134.293 118.359 125.051 119.164 115.798 119.809C106.156 120.435 96.311 120.615 86.7365 121.754C78.0788 122.784 69.4236 123.681 60.7946 124.921C54.3235 125.85 45.486 128.151 39.0685 128.024L39.0437 127.884C38.3483 123.946 38.7327 123.845 42.5721 123.198C46.7438 122.495 50.9417 121.612 55.1417 121.069C66.7499 119.568 78.3153 117.666 89.9819 116.657C95.2582 116.201 100.581 116.027 105.861 115.652C119.519 114.684 133.168 113.592 146.806 112.379C155.669 111.546 163.914 110.236 172.666 109.081C185.158 107.433 195.985 104.32 203.881 93.4966C211.207 83.4555 217.236 69.6097 218.969 57.2227C219.738 51.7342 219.137 45.2866 219.177 39.7586C219.15 32.6487 217.537 22.3507 227.054 21.1239Z" fill="#00448B"/>
<path d="M206.251 7.40239C211.324 7.064 215.661 11.4017 217.908 15.5536C219.645 18.7604 218.687 19.2862 215.976 20.6741C213.196 18.0588 211.272 12.0726 206.975 12.4948C206.319 12.5593 205.272 13.252 205.113 13.9196C203.568 21.1757 204.76 29.1893 204.6 36.7083C204.424 44.9684 203.679 49.7 200.885 57.4939C195.208 73.3269 187.374 89.8035 170.631 96.3144C160.894 100.101 150.438 100.839 140.188 102.171C119.265 104.753 98.1632 105.666 77.166 107.513C66.9763 108.379 58.7276 108.84 48.4623 110.411C45.4246 110.801 32.988 113.237 30.8314 112.551C29.8848 111.689 29.9048 110.175 29.7695 108.899C32.3777 107.942 43.7443 106.286 47.1806 105.783C64.3904 103.263 82.3838 102.276 99.7402 101.135C113.266 100.293 126.763 99.0319 140.211 97.3543C150.338 96.082 162.457 95.0815 171.757 90.5244C186.026 83.3366 192.519 66.9722 197.47 52.7733C202.136 39.3923 197.88 25.9659 200.58 12.5691C201 10.4841 204.367 8.28936 206.251 7.40239Z" fill="#00448B"/>
<path d="M89.0983 127.988C91.7386 127.788 93.0896 130.484 94.5569 132.445C96.2326 132.391 99.3481 131.525 100.605 132.557C100.936 133.155 100.678 133.866 100.528 134.558C98.5692 134.676 96.614 134.851 94.6651 135.084C90.7662 139.196 90.9823 141.504 90.2437 146.603C93.174 145.054 96.9065 141.369 98.7105 140.641L99.0766 140.843C99.8028 143.038 98.2315 143.668 96.794 145.226C97.3734 146.91 99.0409 149.252 100.036 150.923C102.867 150.349 104.603 149.912 107.107 148.46C109.375 147.145 112.029 142.259 114.206 141.805C114.721 142.116 114.541 141.956 114.866 142.565C114.957 144.602 111.421 147.842 109.974 149.693C111.06 151.861 113.552 154.051 114.36 156.418C114.353 156.996 114.262 157.071 113.89 157.524C111.863 157.899 109.762 152.815 107.794 151.662C106.999 151.557 106.359 151.694 105.594 151.873C100.245 153.13 101.5 153.503 100.441 157.85L98.2789 156.86C98.2779 152.143 97.5754 151.076 94.9753 147.134C93.4856 147.698 90.6772 148.532 90.4184 150.355C89.7821 154.838 92.4864 159.242 94.6216 162.927C96.0314 163.175 99.2049 163.478 99.8345 165.004C99.3214 166.544 95.7699 165.595 94.6254 165.331C93.8175 166.133 91.0632 168.843 90.0274 168.135C89.6909 166.623 90.7798 164.999 91.3922 163.519C91.1656 162.646 90.8609 161.965 90.515 161.14L89.3717 158.679C88.4363 159.467 86.9515 160.861 85.6631 160.252C84.9115 158.448 87.3573 156.965 88.5963 156.107C88.4565 154.316 88.1148 152.417 87.8296 150.634C85.4014 151.516 83.2547 151.618 80.5082 152.797C78.7987 155.892 77.7003 159.881 78.1701 163.429C78.3253 164.602 78.7678 166.054 78.6168 167.161C77.9811 167.492 78.0132 167.369 77.19 167.326C76.116 166.741 75.5996 163.924 75.1109 162.5C72.9148 162.349 70.7432 162.619 68.5001 162.281C67.8566 161.733 67.9776 161.986 67.8321 161.312C68.8311 159.798 73.3174 159.92 74.7622 159.52C75.8094 159.229 77.2265 154.314 77.8708 152.774C76.3207 152.599 74.9666 153.049 73.9482 151.999C73.8741 151.355 73.7722 150.895 73.9915 150.276C74.972 149.909 77.8133 150.189 79.2372 149.979C81.9558 149.578 84.0334 148.98 86.6619 148.184C84.8798 145.772 84.7103 145.15 82.355 142.974C80.4319 142.889 77.9506 143.101 76.1011 143.675C74.5713 144.15 71.0583 146.119 69.6613 146.18L69.2816 145.789C68.6856 143.657 71.4142 142.958 72.9129 142.411C71.824 141.001 67.114 136.603 67.1724 135.282C68.7969 134.004 70.8352 136.533 72.0174 137.601C73.2117 138.68 74.3867 139.815 75.5691 140.911C77.5182 140.588 79.2023 140.328 81.18 140.129C80.8385 138.916 79.8886 136.669 80.9454 135.774C83.5827 135.502 82.8908 138.03 83.9496 139.874C85.2244 142.093 86.7667 144.04 88.0453 146.253C88.4491 141.181 88.4254 137.849 92.045 133.96C90.6748 132.116 89.3644 130.344 89.0983 127.988Z" fill="#00448B"/>
<path d="M215.919 116.961C217.981 117.808 219.186 119.325 218.491 121.584C216.368 128.498 210.658 130.387 204.227 128.723C203.938 128.652 202.521 128.162 202.411 128C198.805 122.334 207.234 124.81 209.785 124.454C210.746 124.32 211.149 124.191 211.758 123.441C213.419 121.395 214.249 119.058 215.919 116.961Z" fill="#00448B"/>
<path d="M131.586 182.204C134.283 182.018 136.61 181.855 139.188 182.717C139.497 185.1 139.847 186.229 137.194 186.727C134.181 186.85 132.19 186.877 129.212 186.484C129.105 185.186 129.141 183.849 129.149 182.544C129.884 182.41 130.828 182.309 131.586 182.204Z" fill="#00448B"/>
</symbol>
<symbol id="icon3" viewBox="0 0 266 183">
<g clip-path="url(#clip0_549_4399)">
<path d="M114.088 0H118.586C118.455 2.68884 118.028 5.87017 117.83 8.65529C117.502 13.3647 117.466 18.0899 117.723 22.8036C117.998 27.9015 118.965 32.7085 119.377 37.7536C119.566 40.0765 115.822 41.2372 115.12 37.8715C112.483 25.2404 112.527 12.7493 114.088 0Z" fill="#00448B"/>
<path d="M130.026 4.34912C130.716 4.43 131.599 4.6098 132.3 4.73106C131.979 6.7466 131.731 8.77308 131.557 10.8065C131.105 16.7413 132.091 23.3252 135.909 28.0974C137.217 29.7327 139.045 31.274 140.477 32.9369C142.081 32.0758 143.724 31.2222 145.348 30.3952C146.442 29.8376 148.426 28.5635 149.486 29.4447C149.542 29.7654 149.653 30.1745 149.592 30.4966C149.471 31.1348 143.555 34.3208 142.561 34.9396C143.795 35.4085 149.547 38.2227 147.283 39.95C145.024 39.8842 138.579 34.8702 137.276 32.9023C139.05 43.0611 134.151 47.2706 138.693 57.2103C140.257 56.8523 146.055 55.222 147.144 55.9816C147.355 56.572 147.278 56.4457 147.137 57.1366C146.108 58.3619 142.644 58.4395 140.667 59.2866C142.14 60.9655 143.928 62.1117 145.743 63.4319C145.565 64.1074 145.419 64.8195 145.269 65.5043C138.869 63.2071 136.678 59.1225 134.684 53.118C133.029 55.4442 132.862 57.3657 132.518 60.0889C131.26 70.0334 140.263 76.7333 144.112 84.9333C144.447 85.6485 144.648 86.4673 144.344 87.1996L144.088 87.2394C142.272 86.7107 141.302 84.6621 140.413 83.1062C139.995 84.8746 139.79 86.9726 139.397 88.847C137.846 96.241 136.381 99.0731 138.933 106.386C139.486 107.911 140.13 109.488 140.721 111.006L138.953 112.004C137.065 109.534 135.853 105.182 134.854 102.139C134.274 103.846 132.24 114.085 130.35 113.904C130.21 113.762 130.066 113.61 129.967 113.435C128.539 110.921 133.654 99.128 134.799 95.9711C135.365 94.4116 135.834 92.8347 136.275 91.2367C134.91 92.1254 130.058 95.1878 128.826 93.5611C128.928 91.9127 135.343 89.4322 136.51 87.429C137.308 86.4896 137.127 85.5355 137.18 84.3276C137.505 76.8862 131.69 72.9838 130.774 65.8226C130.038 67.6665 129.52 69.0338 128.949 70.9478C128.497 72.465 127.907 75.836 127.295 76.9772C126.694 77.3095 126.032 77.3147 125.508 76.8854C125.191 75.5762 125.959 71.457 126.301 70.0664C125.022 70.1588 121.415 70.7026 120.891 69.3637C121.853 67.9706 125.232 67.4433 126.917 67.0568C128.188 63.9904 129.282 60.1162 130.214 56.9068C132.899 47.6613 138.843 37.4719 132.091 28.6777C131.496 30.7612 130.78 33.2783 129.712 35.1801C129.3 35.9144 127.819 36.0701 127.187 35.5871C126.915 33.988 130.465 27.9584 130.581 25.8615C130.688 23.9202 129.855 21.2617 129.467 19.3148C128.543 14.684 128.791 8.86777 130.026 4.34912Z" fill="#00448B"/>
<path d="M131.935 129.376C137.466 129.176 132.877 134.961 133.58 138.101C134.229 141.005 137.313 141.077 138.671 143.178C139.553 144.542 138.108 145.761 136.94 146.304C136.849 146.307 136.759 146.309 136.668 146.311C131.928 145.072 128.511 141.264 128.964 136.18C129.208 133.446 129.738 131.256 131.935 129.376Z" fill="#00448B"/>
<path d="M103.137 0H107.786C106.605 11.8911 106.464 23.004 108.199 34.8816C109.757 45.5487 112.918 54.8245 115.562 65.1578C118.941 78.0305 121.271 91.1557 122.529 104.405C123.047 109.716 123.521 114.902 123.291 120.25C123.126 123.706 122.666 127.141 121.917 130.519C121.266 133.493 120.453 136.429 119.48 139.315C118.24 143.046 116.729 146.702 115.642 150.482C113.792 156.913 111.972 167.293 116.635 173.028C118.244 175.007 120.275 176.02 122.812 176.264C133.624 177.304 144.061 171.959 154.781 171.61C162.436 171.362 169.508 173.915 176.97 175.099C186.87 176.67 212.466 178.129 220.237 171.665C221.144 170.912 221.588 170.194 222.024 169.11C221.745 168.537 221.426 167.835 221.124 167.289C217.207 164.66 209.839 164.403 205.16 163.642C199.233 162.679 193.316 161.611 187.739 159.175C176.748 153.966 163.886 146.071 156.66 136.099C153.352 131.594 151.095 126.405 150.056 120.914C148.379 112.331 149.328 99.179 149.843 90.2892C150.411 80.503 151.193 70.7305 152.189 60.9785C154.345 40.043 156.866 21.2224 157.115 0H161.688C161.687 29.9284 155.65 61.0345 154.302 91.0161C153.872 100.576 152.679 113.493 155.124 122.509C156.352 126.922 158.456 131.042 161.311 134.624C168.102 143.236 183.354 153.289 193.715 156.555C196.685 157.465 199.713 158.184 202.776 158.704C208.35 159.629 220.837 160.262 224.522 164.416C225.76 165.813 226.456 167.653 226.335 169.525C226.194 171.675 225.009 173.446 223.421 174.826C213.934 183.072 187.034 181.322 175.318 179.406C168.522 178.295 161.987 175.885 155.009 176.078C144.299 176.374 133.947 181.661 123.121 180.855C119.395 180.578 115.846 179.124 113.375 176.25C111.305 173.843 110.162 170.565 109.638 167.473C107.417 154.368 114.079 143.852 116.995 131.701C119.222 122.42 118.875 113.821 117.965 104.428C116.812 92.139 114.69 79.9598 111.619 68.0048C108.675 56.324 105.375 46.893 103.622 34.7863C101.718 21.6406 102.19 13.0205 103.137 0Z" fill="#00448B"/>
<path d="M179.901 50.653C180.554 50.5772 181.031 50.7799 181.557 51.1451C184.867 53.4365 181.098 56.8964 179.432 58.8991C178.579 59.9261 178.008 60.5103 177.372 61.7259C179.084 63.106 180.793 64.4708 182.394 65.9648C185.042 68.4353 184.18 70.0342 182.078 72.44C180.829 73.8697 179.628 75.1492 178.264 76.4781C180.624 78.87 183.809 80.9487 185.47 83.8005C184.716 86.491 181.236 89.5908 179.464 92.1523C182.032 94.0508 184.969 96.4756 186.541 99.2602C185.899 100.606 184.732 102.755 182.981 102.255C181.2 101.251 172.103 94.4826 172.444 92.0638C172.691 90.3099 176.631 86.1976 178.216 84.789C171.406 76.3265 167.248 80.0788 177.211 69.1572C174.829 67.1993 171.543 64.6514 170.033 62.0305C171.161 59.0557 177.047 52.13 179.901 50.653Z" fill="#00448B"/>
<path d="M80.8724 63.1343C82.7649 62.8279 92.816 69.1395 93.5578 71.2357C93.5664 73.2856 90.2844 77.8851 89.0301 79.7931C95.2404 84.9054 100.148 83.6328 94.1033 92.2573C93.6392 92.9195 92.9182 94.3494 92.498 95.1093C93.939 95.7336 100.419 99.3295 100.251 101.002C99.9429 104.062 95.739 110.528 93.7088 112.733C92.8747 113.389 92.0181 113.808 90.9597 113.387C88.0463 112.23 89.3424 109.337 90.5177 107.377C91.5349 105.682 92.7294 103.902 93.4027 102.065C91.7165 101.289 90.0305 100.231 88.4547 99.3174C86.5232 98.186 84.9869 96.6765 86.0756 94.3187C87.1624 91.9651 88.7313 89.7142 90.1583 87.5582C79.5692 81.2473 80.7568 82.7327 86.4944 72.7591C83.9852 70.3803 74.3148 67.1224 80.8724 63.1343Z" fill="#00448B"/>
</g>

</symbol>
<symbol id="icon4" viewBox="0 0 254 210">
<g clip-path="url(#clip0_549_4408)">
<path d="M106.499 0H110.923H121.251H125.699H131.912H135.684H148.304H150.469H172.863H177.156C177.199 10.5883 176.755 21.173 175.827 31.7208C175.376 37.0407 174.466 42.3893 173.946 47.6945C173.221 55.0789 172.581 62.4837 171.911 69.8758C171.476 74.6672 170.693 79.7623 170.359 84.4992C169.807 92.3457 169.338 100.438 169.129 108.295C169.046 113.708 169.045 119.111 170.561 124.337C174.989 139.606 189.754 148.678 203.125 155.477C206.107 156.993 210.399 157.906 213.744 158.891C221.517 161.177 231.754 159.331 238.129 165.166C240.021 166.987 239.898 169.452 239.793 171.755C238.744 172.711 237.063 175.261 236.218 175.81C227.888 181.222 216.926 180.999 207.377 180.949C202.915 180.927 196.228 180.761 192.011 180.018C183.707 178.557 178.936 176.139 170.087 176.496C162.739 176.792 158.561 178.434 151.595 179.974C146.001 181.21 139.825 180.823 134.162 180.722C130.392 180.7 126.422 181.25 122.685 180.663C116.374 179.673 112.897 173.765 111.847 167.978C109.457 154.799 116.963 143.564 119.55 131.076C120.253 127.815 120.656 124.497 120.751 121.163C120.818 118.735 120.751 116.16 120.991 113.747C121.102 112.636 121.977 112.168 122.865 111.519C123.726 112.108 124.363 112.758 125.111 113.474C126.471 120.699 124.044 133.349 121.553 140.442C118.954 147.842 115.768 155.398 115.798 163.506C115.812 167.116 116.905 171.93 119.641 174.468C122.456 177.08 126.314 176.723 129.918 176.624C120.107 159.552 131.633 145.635 134.602 128.755C135.889 121.442 135.027 114.23 134.798 106.866C132.264 106.844 129.629 106.9 127.208 106.911C118.794 106.95 109.607 107.916 103.231 101.259C102.419 100.411 101.197 99.739 100.679 98.5757C100.556 98.2997 100.35 98.0908 100.135 97.8819C99.2316 100.19 95.0305 104.239 92.879 105.54C95.1766 111.829 94.4247 115.865 88.9812 120.137C92.8382 124.812 95.455 135.903 95.1239 141.911C94.3141 156.619 86.3521 170.171 72.8698 176.689C39.768 192.692 6.09585 161.937 17.0419 127.489C17.6479 125.584 18.6073 124.146 19.4176 122.415C22.8912 114.993 29.1436 108.822 36.4914 105.224C45.4128 100.735 55.7583 99.4235 65.4492 102.166C68.7704 103.096 72.3719 105.037 75.7408 106.234C76.6985 105.063 80.3322 102.409 81.8714 101.914C84.1145 101.191 86.4952 101.166 88.6319 102.206L88.9031 103.092L89.2258 103.245C91.6481 101.121 94.4637 98.3179 96.5143 95.8132C96.8757 93.8106 94.4618 92.5654 93.1809 91.2001C89.3633 87.1225 83.5799 82.9139 81.7413 77.5138C79.4563 70.8032 83.7035 63.1044 90.5004 61.2123C94.5131 59.8253 97.266 60.4092 101.118 62.0941C110.052 65.8969 108.319 79.3662 105.84 86.6638C105.279 88.3135 103.751 88.3182 102.461 87.4658C101.159 85.7026 103.339 79.757 103.628 77.4399C104.04 74.1443 103.847 70.8552 101.682 68.141C100.17 66.2462 97.9867 64.8367 95.5372 64.6068C93.1979 64.3874 91.1356 64.8862 89.332 66.4191C87.2344 68.2021 85.698 70.4926 85.5027 73.3052C85.2932 76.3228 87.0866 78.6522 88.9814 80.818C91.508 83.7063 106.867 99.0982 109.035 100.303C112.308 102.121 115.691 102.452 119.348 102.697C118.907 89.2282 113.679 70.446 109.964 57.4147C104.348 37.7198 103.551 20.2015 106.499 0Z" fill="#00448B"/>
<path d="M125.697 0H131.911H135.683H148.303H150.468H172.862C172.781 9.1593 172.407 18.3137 171.74 27.449C171.27 33.2659 170.404 39.3914 169.782 45.2304C168.099 60.2893 166.687 75.3774 165.547 90.4873L161.146 90.4292C158.485 92.2419 158.891 92.9838 160.949 95.103C162.161 95.1789 163.91 95.1036 165.165 95.0826C164.731 99.6602 164.814 107.842 164.735 112.638C161.97 112.39 158.032 112.491 155.192 112.493L139.45 112.534C139.025 106.67 138.465 100.817 137.772 94.9786C140.954 95.3524 148.702 95.0288 152.005 94.8999C152.578 93.6713 153.114 92.5325 152.351 91.2711C150.71 90.0008 139.507 90.526 136.888 90.5726C135.798 85.2396 134.996 80.0711 133.765 74.7143C131.887 66.5427 129.094 58.2788 127.165 50.2248C124.527 39.1608 123.364 27.7974 123.707 16.4296C123.886 9.94657 125.198 5.81699 125.697 0Z" fill="#E8E8E8"/>
<path d="M148.302 0H150.468C151.156 1.40906 151.001 5.31546 151.047 7.04828C151.208 13.0888 151.494 20.4732 154.48 25.8059C157.158 30.5904 161.587 34.82 167.061 35.858C167.615 35.9629 167.868 36.3555 168.109 36.8187C167.74 38.3747 166.219 38.0877 164.988 38.0205C165.144 41.3852 165.445 42.4487 164.449 45.6946C161.656 41.759 163.302 40.773 161.785 37.1541C161.516 36.5141 157.865 33.8243 156.872 32.9054C157.612 36.2581 158.245 39.2989 158.204 42.7525C158.157 46.7444 157.265 51.3069 158.036 55.2086C158.473 57.424 159.929 60.3632 160.808 62.4716C161.219 63.4586 162.052 65.3271 161.652 66.3313L161.257 66.4203C156.572 63.174 156.501 56.908 155.173 55.5511L154.764 55.6818C152.742 57.7851 151.076 64.4498 151.098 67.6708C153.582 71.6085 153.822 70.9683 156.66 74.0989L154.507 76.0413C152.933 74.3284 152.106 72.6417 150.12 70.5816C148.527 73.5929 148.606 76.2297 147.095 79.0325C146.977 79.2521 146.71 79.2156 146.416 79.2496C145.309 78.7938 145.174 78.0312 145.499 76.9567C146.963 72.1184 148.097 68.0508 148.601 62.9659C144.795 64.6242 142.296 66.4138 138.867 68.6324C138.465 68.8929 138.216 68.7687 137.839 68.6062C137 66.1777 140.878 63.9441 142.631 63.0754C139.652 62.2631 137.282 60.7939 134.777 59.0689L136.423 57.3652C138.194 58.5429 143.249 61.0191 145.318 61.6444C148.374 60.6239 151.675 57.0051 152.849 54.0383C151.315 54.4215 147.115 55.5265 146.143 54.0759C146.684 51.755 152.229 52.5459 155.215 49.3812C157.374 41.6421 155.531 35.2908 152.161 28.4225C151.7 32.4753 150.451 32.764 149.571 35.8813C150.046 38.0275 150.689 40.133 151.306 42.2434L148.698 42.7183C148.203 40.976 148.046 39.4388 147.821 37.6545C146.572 38.7401 143.452 42.0468 141.938 41.0099C141.592 38.833 146.403 35.9468 147.601 33.8042C151.591 26.6685 149.13 20.0296 148.516 12.3942C148.155 8.27284 148.084 4.13131 148.302 0Z" fill="#00448B"/>
<path d="M131.911 0H135.683C136.016 2.33088 135.101 7.6008 134.796 10.1866C134.448 13.1211 134.251 16.0714 134.206 19.0259C134.161 23.2016 134.262 27.3152 134.662 31.4743C135.027 35.2613 135.759 39.2271 136 42.999C135.324 43.5864 135.034 43.9486 134.463 44.6462L132.159 43.631C131.46 41.7479 130.966 37.873 130.704 35.7591C129.117 23.855 129.525 11.7704 131.911 0Z" fill="#00448B"/>
<path d="M110.922 0H121.25C118.051 18.6723 118.702 33.5536 123.109 52.1498C124.013 56.0812 125.326 59.9143 126.344 63.8123C129.57 76.1622 133.07 89.9259 134.082 102.656C130.757 102.467 127.279 102.552 123.954 102.733C122.723 91.1985 120.619 79.7734 117.66 68.5561C115.5 60.3945 112.593 51.7304 111.105 43.4307C109.188 32.7712 108.657 21.9091 109.526 11.1139C109.849 7.35014 110.443 3.73777 110.922 0Z" fill="#E8E8E8"/>
<path d="M51.1877 105.34C70.8063 103.308 88.3697 117.513 90.4451 137.09C92.5205 156.668 78.3247 174.227 58.7144 176.338C39.0478 178.456 21.3943 164.237 19.3128 144.603C17.2314 124.969 31.5129 107.378 51.1877 105.34Z" fill="#E8E8E8"/>
<path d="M53.4362 111.183C56.594 110.867 60.5629 110.8 58.8055 115.211C57.2421 115.42 54.9224 115.413 53.255 115.58C47.7974 116.127 44.1698 117.512 39.7163 120.535C38.8236 121.16 36.3743 122.59 35.4136 121.452C33.3598 119.02 38.707 115.792 40.509 114.859C44.515 112.785 48.9242 111.513 53.4362 111.183Z" fill="#00448B"/>
<path d="M139.804 117.008L164.91 116.956C164.939 117.908 164.995 118.858 165.077 119.807C165.398 123.259 166.19 125.523 167.386 128.719C171.415 139.482 179.291 146.079 188.585 152.206C192.567 154.831 196.842 157.518 201.255 159.488C204.768 161.029 208.338 161.931 212.016 163.009C218.473 164.901 225.649 164.134 231.95 166.427C233.365 166.942 234.81 168.203 235.964 169.159C233.766 173.923 226.383 175.632 221.636 176.121C213.727 176.971 199.812 176.966 191.948 175.535C184.385 174.159 180.673 172.219 171.888 172.081C161.283 171.891 152.707 176.334 142.05 176.667C128.148 177.1 129.587 161.657 132.018 152.342C133.561 146.431 136.421 140.605 137.896 134.509C139.368 128.429 139.829 123.283 139.804 117.008Z" fill="#E8E8E8"/>
<path d="M148.478 130.666C149.179 130.866 150.737 131.913 151.421 132.346C148.07 140.643 148.731 140.044 155.64 145.062L153.618 147.164C153.464 147.311 153.136 147.498 152.923 147.468C144.87 146.36 142.928 135.638 148.478 130.666Z" fill="#00448B"/>
<path d="M84.3415 105.826C86.7939 105.679 88.5369 106.717 89.4244 109.06C89.9609 110.511 89.8883 112.117 89.2227 113.515C88.7916 114.42 87.4211 116.027 86.5016 116.355L86.3093 116.076C83.7317 112.745 82.8849 111.942 79.6367 109.354C80.6372 106.765 81.5886 106.292 84.3415 105.826Z" fill="#E8E8E8"/>
</g>

</symbol>
<symbol id="icon5" viewBox="0 0 243 203">
<g clip-path="url(#clip0_549_4421)">
<path d="M88.747 13.7402C90.4165 14.6212 94.0945 18.5302 95.4946 19.9673C97.019 18.7991 101.432 15.7414 103.213 16.4826C103.768 18.3828 98.157 21.3128 96.6154 22.1609C96.9454 24.3778 97.2954 26.5917 97.6655 28.8023C98.777 28.9482 101.37 29.1803 101.991 30.1215C102.014 30.8071 101.918 30.9878 101.687 31.608C100.875 32.1382 98.4553 31.3875 97.4164 31.6459C95.2938 32.1741 93.0752 33.2311 91.061 34.1012C91.3644 35.1345 92.5152 37.7486 92.9727 38.9407C97.7287 39.4359 102.837 39.1011 106.701 35.9964L107.306 32.7183C107.947 31.9988 108.616 30.8997 109.598 31.4218C110.191 32.5941 109.476 36.072 109.297 37.5812C110.238 38.5172 111.753 39.0096 111.48 40.6102C111.365 41.2832 111.611 41.3136 111.083 41.7709C107.4 41.5663 111.606 37.7739 101.794 40.6748C102.627 41.8258 103.896 43.5131 103.036 44.9672C101.409 45.6844 100.322 43.0959 99.788 41.9127C97.6637 41.6973 95.7767 41.8173 93.6531 41.8961C94.5929 44.7095 94.8547 46.1889 95.3762 49.1421C97.398 50.1523 101.006 52.0507 103.129 52.4906C104.269 52.7268 108.012 51.6522 109.412 52.6233C109.667 53.2307 109.642 52.9604 109.448 53.6598C108.558 54.5302 105.439 54.9593 104.073 55.2272C103.941 56.9116 104.251 60.9834 102.826 61.917C102.164 61.9871 102.41 62.0424 101.867 61.7606C101.443 61.1477 101.361 60.1991 101.444 59.489C102.254 52.5562 100.222 54.7516 95.3499 51.8372C95.1492 52.9934 95.0112 54.035 94.8708 55.1982L92.3316 55.5343L92.3815 52.0082C92.4433 48.2658 92.0957 46.1277 91.7122 42.4176C89.9527 43.2825 87.6035 45.061 85.6744 46.1543C85.8913 48.6046 85.7601 50.7423 86.2688 53.2465C86.5514 54.6386 88.3729 58.0509 88.0267 58.9926C87.4825 59.3141 87.0804 59.2548 86.4573 59.2438C85.3023 58.7314 84.3479 56.4118 83.724 55.198C82.3164 56.5903 79.157 60.453 77.175 60.2972C76.4727 59.9072 76.6908 60.131 76.3049 59.4732C76.4543 57.9315 81.7069 53.9264 83.0916 52.7558C83.2011 50.9467 83.0823 48.7509 83.0288 46.911C81.9208 47.0036 80.001 47.2836 79.037 46.8674C78.8202 46.3634 78.87 46.5611 78.9876 45.9508C79.9947 44.6694 82.0898 44.8554 83.1164 44.3466C85.2129 43.3075 87.4709 42.0027 89.5713 40.9208C87.4863 40.3075 85.2015 40.3387 83.192 39.5175C81.3291 38.7563 79.6779 37.1239 78.22 35.7551C77.0498 36.3692 73.4921 38.5958 72.395 37.5462C72.2886 36.0215 75.779 33.8903 76.9829 33.0422C77.0279 31.7338 76.6531 27.9151 77.537 27.1219C78.685 26.0918 79.5093 27.7228 79.3532 28.997C78.4102 36.6893 84.3466 37.5911 90.293 38.5999C89.4319 36.541 85.4269 31.1007 85.9304 29.5335C87.4991 28.6501 89.1546 31.3659 89.8723 32.4267C91.4289 31.3049 94.0643 30.209 95.8765 29.3994C94.7897 24.8063 94.5984 22.4707 91.0474 18.9774C89.6159 17.5691 87.9365 15.8035 88.747 13.7402Z" fill="#00448B"/>
<path d="M35.9531 0H42.2874C43.5866 5.0194 46.4733 11.0165 48.3875 15.9327C50.4688 21.2771 52.7232 26.5853 54.8556 31.8873L64.8385 56.585C68.0184 64.6837 71.1293 72.8056 74.5963 80.7836C77.8692 88.3157 85.118 94.8477 86.0913 103.198C86.537 107.023 86.2883 114.034 85.9022 117.99C85.1547 125.653 85.4328 133.465 92.8235 137.953C96.8771 140.415 104.889 142.508 109.48 144.123C111.9 144.975 115.145 145.654 117.369 147.156C119.543 148.623 122.049 151.364 123.948 153.279L133.848 163.211C137.447 166.794 141.475 171.622 146.205 173.651C149.498 175.022 153.469 175.225 156.946 175.18C161.254 175.124 167.522 176.05 169.909 171.461C171.9 167.636 171.828 162.297 167.521 160.087C163.899 158.228 159.672 156.729 157.073 153.555C155.735 151.769 154.388 148.829 153.379 146.75C151.592 143.115 149.875 139.446 148.228 135.746C144.088 126.558 139.65 117.328 135.161 108.3C132.707 103.346 126.948 99.4333 125.37 94.1264C124.18 90.1235 125.472 84.574 125.569 80.3326C125.831 68.9293 122.618 57.7567 120.092 46.684L111.967 11.0238C111.217 7.68818 109.816 3.0884 109.244 0H114.995C115.955 5.28319 117.458 9.75509 118.518 14.7488C121.194 27.3567 124.516 39.6001 126.936 52.2863C127.924 57.4671 129.252 62.3396 130.072 67.6681C130.754 72.102 131.181 74.4866 131.276 79.0594C131.353 82.7359 129.419 89.631 130.508 92.2138C132.468 96.8618 138.207 101.815 140.595 106.614C141.958 109.355 143.186 112.152 144.473 114.89C149.489 125.676 154.782 136.37 159.661 147.213C163.282 155.26 171.869 152.59 175.357 160.883C178.255 167.772 175.632 176.262 168.767 179.559C165.565 181.097 160.444 180.709 156.958 180.842C149.835 181.005 143.056 179.51 137.677 174.566C135.982 173.067 134.354 171.301 132.71 169.703L120.92 158.053C115.055 152.191 115.923 151.856 107.744 149.409C103.161 148.038 97.5418 145.645 92.8707 144.148C88.3809 142.71 83.1498 137.011 81.5024 132.672C77.6793 122.59 82.7613 110.799 79.7215 100.532C78.609 96.8685 75.8614 93.7915 73.8847 90.6035C72.2462 87.9605 69.8646 83.9542 68.6866 81.1285C67.2001 77.5632 65.7759 73.726 64.3312 70.1073L56.2115 49.9656L35.9531 0Z" fill="#00448B"/>
</g>

</symbol>
<symbol id="icon6" viewBox="0 0 123 127">
<path d="M55.5709 10.6517C84.9727 7.65925 111.224 29.0903 114.177 58.496C117.13 87.9018 95.6635 114.125 66.2538 117.038C36.9001 119.945 10.7382 98.5285 7.79105 69.1789C4.84388 39.8292 26.2253 13.6385 55.5709 10.6517Z" fill="#00448B"/>
<path d="M58.0825 17.1086C70.2431 16.5884 80.4337 19.4178 90.1346 27.0066C99.9038 34.6636 106.199 45.9146 107.614 58.2461C108.932 68.7836 106.596 79.4545 100.994 88.4767C99.6357 90.6497 97.8357 92.857 96.2379 94.8946C93.8228 91.5343 92.4052 90.7906 89.7413 88.0962L76.9055 75.1763C76.6685 76.4909 76.509 82.7805 77.0052 84.0501C77.6632 85.7331 81.146 88.4599 82.4915 89.877C85.4276 92.9696 89.2924 96.0704 91.6143 99.6078C90.0969 100.617 88.6156 101.807 87.0555 102.865C80.4754 107.327 72.2141 110.177 64.2328 110.553C62.878 110.66 61.4742 110.642 60.1139 110.629C24.5679 110.278 2.44663 71.1811 20.1586 40.4432C21.7497 37.682 23.9939 35.5038 25.5392 32.7251C26.9037 34.9179 32.5344 39.8576 34.6865 42.0249C37.9819 45.3435 41.5681 49.4691 45.1537 52.32C45.1792 49.4305 45.1757 46.5407 45.143 43.6512C42.1296 39.8427 38.0799 36.8105 34.8529 33.1099C33.2604 31.2836 31.7139 30.4593 30.364 28.1786C31.6651 26.919 33.8319 25.7133 35.3503 24.6781C42.1453 20.0456 49.7783 17.4748 58.0825 17.1086Z" fill="white"/>
<path d="M50.05 42.5938C52.7984 43.2454 56.6422 44.9598 58.5892 47.0931C59.4658 48.0536 59.8835 48.9807 60.9974 49.8755C61.6873 50.1713 62.1508 50.1149 62.6652 49.5217C63.4364 48.6224 64.068 47.6579 64.8745 46.8123C66.8213 44.7711 70.3423 43.1597 73.0802 42.6578C73.0531 47.1156 72.8493 49.3836 69.5058 52.7737C67.8498 54.4527 66.1513 55.1551 63.9857 56.0155C63.6734 56.1396 62.7214 56.5278 62.4283 56.5832C61.69 56.6652 61.4368 56.6714 60.6929 56.6393C58.0908 55.8828 54.4752 53.8953 52.6494 51.8469C49.9857 48.8582 49.8957 46.3133 50.05 42.5938Z" fill="#00448B"/>
<path d="M50.1276 54.1504C50.3578 54.2038 50.587 54.2616 50.8151 54.3236C54.5598 55.3472 58.1057 57.3223 60.0585 60.7638C60.6072 61.3971 62.2011 61.4381 62.844 61.0673L62.9254 60.9529C63.2178 60.4449 63.594 59.754 63.9338 59.294C65.838 56.7169 69.9551 54.7893 73.0278 54.2873C73.1185 58.1446 73.1487 60.3997 70.3145 63.381C67.866 65.9563 65.4962 66.9233 62.2958 68.2546C62.0273 68.3116 61.4301 68.4553 61.1857 68.4774C58.4411 67.3933 54.0376 65.1088 52.2353 62.8809C49.996 60.1129 49.8401 57.4928 50.1276 54.1504Z" fill="#00448B"/>
<path d="M50.2155 76.7012C55.2338 78.8992 57.012 80.0449 60.6798 84.0135C61.336 84.6908 61.9988 84.5435 62.5928 83.9147C65.3425 80.4624 68.628 78.415 72.7648 76.8824C74.4099 84.722 68.891 88.7663 62.3312 91.2005C62.0054 91.2451 61.66 91.2827 61.3418 91.3582C59.9991 91.0848 55.0279 88.3899 53.9358 87.5777C53.2318 87.0636 52.6079 86.448 52.0845 85.7508C49.9864 82.9369 49.7159 80.0427 50.2155 76.7012Z" fill="#00448B"/>
<path d="M50.3482 65.4004C52.6642 66.6536 55.02 67.3709 57.2295 69.0385C58.6267 70.0931 59.9966 72.0056 61.2936 72.8317C61.4825 73.0228 61.801 73.1586 62.0713 73.1278C62.4364 72.9836 62.4701 72.9104 62.6792 72.5898C65.3018 68.3495 68.2957 67.4532 72.8186 65.4944C73.7834 72.571 70.7164 75.8397 64.6617 78.6216C63.9468 78.95 63.1944 79.4432 62.463 79.7184C61.9229 79.7473 61.5085 79.7587 60.9684 79.7419C59.3168 79.2153 57.7587 78.2289 56.2204 77.4527C51.409 75.0254 49.0836 70.8643 50.3482 65.4004Z" fill="#00448B"/>
<path d="M60.809 47.0064C56.5877 42.6972 55.9922 38.6129 59.5373 33.5289C60.1591 32.6372 61.3757 31.3915 62.4176 32.3396C63.8173 33.6135 65.4081 36.6662 65.6515 38.4956C66.1616 42.33 64.5871 44.0941 62.3769 46.9293C61.7526 47.1702 61.4707 47.1842 60.809 47.0064Z" fill="#00448B"/>
<path d="M60.4647 91C61.2504 91.0897 61.7533 91.1223 62.5437 91.129C62.4778 92.5598 62.5242 94.4211 62.5164 95.8871L60.383 95.9288C60.3598 94.2854 60.3871 92.6418 60.4647 91Z" fill="#00448B"/>
<path d="M60.6915 56.6401C61.4354 56.6722 61.6886 56.666 62.4268 56.584C62.4647 57.4784 62.5108 60.2806 62.9255 60.9536L62.8441 61.0681C62.2012 61.4389 60.6073 61.3978 60.0586 60.7645L60.206 60.7406C60.386 60.5288 60.5435 57.319 60.6915 56.6401Z" fill="#00448B"/>
<path d="M60.9694 79.7423C61.5096 79.7591 61.924 79.7477 62.464 79.7188C62.2279 80.2814 62.3391 83.4354 62.5927 83.9138C61.9987 84.5427 61.3359 84.6899 60.6797 84.0127L60.8846 83.6833C60.8492 83.0488 61.0536 79.9268 60.9694 79.7423Z" fill="#00448B"/>
<path d="M61.1869 68.4787C61.4314 68.4566 62.0286 68.3129 62.2971 68.2559C62.2701 69.1219 62.2598 71.8994 62.6807 72.5906C62.4716 72.9112 62.4379 72.9845 62.0728 73.1286C61.8025 73.1595 61.484 73.0237 61.2952 72.8326C61.5388 72.4487 61.2514 71.7806 61.1457 71.3233C60.8705 70.1323 60.9412 69.6483 61.1869 68.4787Z" fill="#00448B"/>
<path d="M60.8086 47.0068C61.4703 47.1846 61.7522 47.1706 62.3765 46.9297C62.2319 47.5087 62.3338 49.0381 62.6637 49.5235C62.1493 50.1166 61.6858 50.1731 60.996 49.8772C61.188 49.7313 61.2037 49.6893 61.3405 49.4858C61.4142 48.6307 61.3834 47.697 60.8086 47.0068Z" fill="#00448B"/>
</symbol>
<symbol id="icon7" viewBox="0 0 122 127">
<path d="M55.8077 8.76468C85.2556 7.03115 110.537 29.4903 112.284 58.9374C114.032 88.3843 91.5847 113.676 62.1385 115.438C32.6725 117.201 7.35992 94.7351 5.61113 65.2681C3.86232 35.8012 26.34 10.4994 55.8077 8.76468Z" fill="#00448B"/>
<path d="M58.1654 15.1872C61.3808 15.243 64.2553 15.2677 67.4254 15.8621C99.6743 21.9088 116.374 58.4995 98.9841 86.5419C97.5482 88.8572 95.8951 90.8461 94.3792 93.0804C93.7612 92.1525 91.4813 89.9531 90.6203 89.0868L82.4818 81.0021C80.9494 79.4902 78.6044 77.307 77.347 75.663C77.4645 78.6673 77.4381 81.6442 77.4296 84.6499C78.7553 86.937 81.216 88.7083 82.9843 90.6329C85.2087 93.0536 87.386 95.1317 89.8357 97.3273C82.7686 103.871 73.2131 107.64 63.7127 108.704C61.1898 108.986 58.6614 108.941 56.1287 108.885C45.0309 108.318 34.4721 103.58 26.5273 95.9361C23.2871 92.8186 21.8432 90.9671 19.3889 87.2169C9.51323 72.1263 9.41272 52.0566 19.3651 36.9897C20.7949 34.8269 21.7953 33.2661 23.6104 31.3209C29.6277 37.179 35.6114 43.7869 41.8494 49.2802C42.3859 46.8996 42.9497 44.5251 43.5409 42.1574C42.5762 41.2946 41.7213 40.2258 40.8002 39.3077C39.6988 38.2098 38.5815 37.1249 37.4895 36.0182C34.3193 32.8052 31.0297 29.9205 28.1744 26.3962C30.2733 25.299 31.6364 23.8233 33.5468 22.6281C35.2287 21.5061 37.2147 20.7107 38.9651 19.7847C42.9586 17.6723 46.6461 16.6414 51.0826 15.8428C53.6368 15.3832 55.5466 15.2431 58.1654 15.1872Z" fill="white"/>
<path d="M53.319 25.7929C55.9538 25.7979 58.5887 25.7872 61.2235 25.7605C63.0649 25.7476 66.8136 25.3486 68.0169 26.8847C68.2635 27.1985 68.3727 27.5987 68.3197 27.9943C68.1473 29.3155 66.3176 30.5736 65.3 31.346C65.4996 34.4995 67.6328 37.1096 68.6671 40.1753C70.2105 44.7495 71.8289 49.2651 72.5186 54.071C72.9207 56.8738 72.8902 59.7025 72.9349 62.5223C73.0186 66.0774 73.0552 69.6334 73.0445 73.1895C73.0796 81.692 73.0683 90.1946 73.0107 98.6969C70.4074 98.5857 47.6889 98.6704 45.0683 98.6518C38.4459 98.6873 51.6877 98.5684 45.0683 98.6518C44.8026 91.3906 44.925 83.6268 44.9333 76.3325C45.0787 69.4914 44.6166 62.4243 45.3495 55.6243C45.9784 49.7906 47.7886 43.7962 49.8395 38.3243C50.7124 35.9951 52.5113 33.9995 52.5113 31.2373C52.1358 30.9256 51.7632 30.6102 51.3939 30.2912C48.1368 27.4619 49.3229 25.8359 53.319 25.7929Z" fill="#00448B"/>
<path d="M66.6068 66.1764C67.4583 66.1543 68.3096 66.2231 69.1465 66.3813C69.461 68.8455 69.3378 73.6372 69.3377 76.2359L69.3295 94.7386L51.261 94.8117L48.6028 94.8096C48.4839 90.6659 48.5401 86.4122 48.544 82.2556L48.5498 66.9423C51.402 67.1975 55.9211 67.5858 58.7473 67.2171C61.7575 66.8243 63.4059 66.2987 66.6068 66.1764Z" fill="white"/>
</symbol>
<symbol id="logo-mob" viewBox="0 0 38 38">
<path d="M0.125231 18.2724C0.850564 21.4618 4.14656 22.1551 9.50122 22.0591C14.8559 21.9631 24.2425 23.2111 27.2612 27.9471C28.7866 30.3364 27.8052 32.6831 25.7572 34.2937C24.4879 35.2964 22.5039 36.1711 21.2879 36.4058C28.7119 35.7551 32.2532 31.4777 32.5732 31.0937C32.8932 30.7097 36.1786 27.4138 32.4452 23.9898C28.5412 20.4058 17.6505 18.8804 11.5279 17.8991C5.40522 16.9178 3.14389 13.5684 2.74922 12.1498C2.31189 10.5711 4.0079 7.92578 4.0079 7.92578C2.65323 9.78178 -0.685435 14.7204 0.125231 18.2724Z" fill="url(#paint0_linear_2001_3792)"/>
<path d="M10.4082 2.31491C10.4082 2.31491 15.3042 -0.0744389 19.0269 1.33356C22.6855 2.70956 23.4642 4.92822 23.6455 5.16289C23.8269 5.39756 29.5229 14.8482 30.6215 16.5442C31.7309 18.2402 35.0482 21.3656 36.2962 21.3869C37.5229 21.4082 37.0962 19.9896 37.0002 19.7656C36.9682 19.6802 35.8695 15.6269 34.2375 13.5469C32.6055 11.4669 29.8109 7.81891 29.0749 6.51758C28.3389 5.21624 27.0375 3.63757 26.5895 3.17891C26.1415 2.72024 24.1895 0.618897 21.1389 0.202897C20.3495 0.0962305 19.5389 0.0322266 18.6855 0.0322266C16.2642 0.0322266 13.5762 0.586909 10.4082 2.31491Z" fill="url(#paint1_linear_2001_3792)"/>
<path opacity="0.8" d="M21.0961 4.16006C15.2401 4.36273 11.6135 5.1414 7.24015 8.00006C3.84815 10.2187 0.893479 15.2427 0.882812 20.4054V20.4161C0.882812 21.1841 0.946815 21.9414 1.08548 22.7094C2.01348 27.8507 4.41348 32.6934 10.4188 35.5414C12.8615 36.6934 15.6668 37.3761 18.5681 37.4081H18.8881C23.0375 37.3761 27.3468 35.9787 31.0055 32.6721C29.8855 33.5787 25.7468 36.3841 20.9255 36.3094C14.7495 36.2134 12.1788 33.0774 10.8028 30.7414C9.48015 28.4907 8.55215 25.4081 9.68281 21.5467C10.1735 19.8721 11.9868 16.6401 14.8668 14.0694C18.5148 10.7947 24.2642 8.8214 28.5415 9.73874C34.2375 10.9654 36.4028 17.4827 36.9895 19.9041C37.1281 20.4587 37.1175 20.8427 37.1175 20.8427C37.1175 20.8427 37.1921 20.5441 37.2348 20.0534C37.3841 18.3254 37.4268 14.0801 35.3361 10.4534C32.5841 5.69608 27.5921 4.14941 22.1628 4.14941C21.8001 4.14941 21.4481 4.14939 21.0961 4.16006Z" fill="url(#paint2_linear_2001_3792)"/>
<path d="M5.1599 5.30133C0.562563 10.2187 0.0612213 15.424 0.0185547 16.6187C0.0612213 15.9147 0.391886 13.7173 2.59989 10.0373C4.72255 6.47467 7.45323 4.21336 8.69056 3.39202C13.9066 -0.0746419 18.3866 0.0213542 18.3866 0.0213542C18.3866 0.0213542 18.1626 0 17.7572 0C15.8052 0.0106667 9.72523 0.426668 5.1599 5.30133Z" fill="url(#paint3_linear_2001_3792)"/>

</symbol>
<symbol id="logo1" viewBox="0 0 411 75">
<path d="M0.248475 36.2537C1.68763 42.5818 8.22731 43.9575 18.8517 43.767C29.476 43.5765 48.1004 46.0527 54.0898 55.4495C57.1163 60.1903 55.1692 64.8463 51.1057 68.0421C48.5872 70.0315 44.6507 71.767 42.238 72.2326C56.9681 70.9416 63.9946 62.4548 64.6295 61.6929C65.2645 60.931 71.783 54.3913 64.3755 47.5977C56.6295 40.4866 35.021 37.46 22.8728 35.513C10.7247 33.5659 6.23789 26.9204 5.45482 24.1056C4.58709 20.9733 7.95219 15.7246 7.95219 15.7246C5.26436 19.4072 -1.35999 29.2061 0.248475 36.2537Z" fill="url(#paint0_linear_2001_1493)"/>
<path d="M20.6504 4.59262C20.6504 4.59262 30.3647 -0.148162 37.751 2.64549C45.0102 5.37566 46.5552 9.77778 46.915 10.2434C47.2748 10.709 58.5764 29.4604 60.7563 32.8255C62.9573 36.1906 69.5394 42.3916 72.0155 42.434C74.4494 42.4763 73.6029 39.6614 73.4124 39.217C73.3489 39.0477 71.169 31.0054 67.9309 26.8784C64.6928 22.7514 59.1478 15.5133 57.6875 12.9313C56.2272 10.3492 53.6452 7.21696 52.7563 6.3069C51.8674 5.39685 47.9944 1.22751 41.9414 0.402109C40.3753 0.190469 38.7668 0.0634766 37.0737 0.0634766C32.2694 0.0634766 26.9361 1.16404 20.6504 4.59262Z" fill="url(#paint1_linear_2001_1493)"/>
<path opacity="0.8" d="M41.8559 8.25452C30.2368 8.65664 23.0411 10.2016 14.3638 15.8736C7.63362 20.2757 1.77116 30.244 1.75 40.4874V40.5086C1.75 42.0324 1.87699 43.535 2.15212 45.0588C3.9934 55.2599 8.75531 64.8684 20.6707 70.5192C25.5172 72.8049 31.0834 74.1594 36.84 74.2229H37.4749C45.7078 74.1594 54.258 71.3869 61.5173 64.8261C59.2951 66.625 51.0834 72.1912 41.5173 72.043C29.2633 71.8526 24.1627 65.6303 21.4326 60.9954C18.8082 56.5298 16.967 50.4134 19.2103 42.752C20.1839 39.4292 23.7818 33.0165 29.4961 27.9159C36.7342 21.4186 48.1416 17.5032 56.6284 19.3233C67.93 21.7572 72.2263 34.6884 73.3903 39.4927C73.6654 40.5932 73.6443 41.3551 73.6443 41.3551C73.6443 41.3551 73.7925 40.7626 73.8771 39.789C74.1734 36.3604 74.2581 27.9371 70.1099 20.7414C64.6496 11.3022 54.7448 8.2334 43.9723 8.2334C43.2527 8.2334 42.5543 8.23335 41.8559 8.25452Z" fill="url(#paint2_linear_2001_1493)"/>
<path d="M10.2382 10.5185C1.11649 20.2752 0.121766 30.6033 0.0371094 32.9736C0.121766 31.5768 0.777848 27.217 5.15881 19.9154C9.37046 12.8466 14.7885 8.35985 17.2435 6.73022C27.5927 -0.148099 36.4816 0.0423695 36.4816 0.0423695C36.4816 0.0423695 36.0372 0 35.233 0C31.3599 0.0211641 19.2964 0.846565 10.2382 10.5185Z" fill="url(#paint3_linear_2001_1493)"/>
<path d="M94.128 52.1113V20.6713H103.872C105.984 20.6713 107.872 20.9273 109.536 21.4393C111.2 21.9193 112.496 22.7353 113.424 23.8873C114.384 25.0073 114.864 26.5113 114.864 28.3993C114.864 29.9993 114.48 31.4233 113.712 32.6713C112.944 33.8873 111.84 34.7353 110.4 35.2153V35.4073C112.288 35.7593 113.792 36.5433 114.912 37.7593C116.032 38.9753 116.592 40.6233 116.592 42.7033C116.592 44.8473 116.08 46.6073 115.056 47.9833C114.032 49.3593 112.608 50.3993 110.784 51.1033C108.992 51.7753 106.928 52.1113 104.592 52.1113H94.128ZM98.928 33.8233H103.248C105.68 33.8233 107.44 33.3913 108.528 32.5273C109.616 31.6633 110.16 30.4953 110.16 29.0233C110.16 27.3593 109.584 26.1753 108.432 25.4713C107.312 24.7673 105.632 24.4153 103.392 24.4153H98.928V33.8233ZM98.928 48.3193H104.016C106.544 48.3193 108.48 47.8713 109.824 46.9753C111.2 46.0473 111.888 44.6073 111.888 42.6553C111.888 40.8633 111.216 39.5513 109.872 38.7193C108.528 37.8873 106.576 37.4713 104.016 37.4713H98.928V48.3193ZM131.942 52.6873C129.766 52.6873 127.814 52.2073 126.086 51.2473C124.358 50.2553 122.982 48.8473 121.958 47.0233C120.966 45.1993 120.47 42.9913 120.47 40.3993C120.47 37.8393 120.982 35.6473 122.006 33.8233C123.03 31.9673 124.358 30.5433 125.99 29.5513C127.622 28.5593 129.35 28.0633 131.174 28.0633C133.254 28.0633 134.998 28.5433 136.406 29.5033C137.814 30.4313 138.87 31.7273 139.574 33.3913C140.31 35.0233 140.678 36.9433 140.678 39.1513C140.678 39.5993 140.662 40.0473 140.63 40.4953C140.598 40.9433 140.534 41.3753 140.438 41.7913H123.926V38.0953H136.454C136.454 36.1113 136.022 34.5913 135.158 33.5353C134.294 32.4473 132.998 31.9033 131.27 31.9033C130.278 31.9033 129.318 32.1753 128.39 32.7193C127.462 33.2313 126.694 34.1113 126.086 35.3593C125.478 36.5753 125.174 38.2393 125.174 40.3513C125.174 42.2713 125.51 43.8553 126.182 45.1033C126.854 46.3513 127.75 47.2953 128.87 47.9353C129.99 48.5433 131.19 48.8473 132.47 48.8473C133.558 48.8473 134.566 48.7033 135.494 48.4153C136.454 48.0953 137.334 47.6793 138.134 47.1673L139.814 50.2393C138.758 50.9753 137.558 51.5673 136.214 52.0153C134.902 52.4633 133.478 52.6873 131.942 52.6873ZM155.797 52.6873C153.653 52.6873 151.733 52.2073 150.037 51.2473C148.341 50.2553 146.997 48.8473 146.005 47.0233C145.013 45.1993 144.517 42.9913 144.517 40.3993C144.517 37.8073 145.045 35.5993 146.101 33.7753C147.189 31.9193 148.613 30.5113 150.373 29.5513C152.133 28.5593 154.021 28.0633 156.037 28.0633C157.573 28.0633 158.901 28.3193 160.021 28.8313C161.141 29.3433 162.117 29.9833 162.949 30.7513L160.645 33.7273C160.101 33.2153 159.461 32.7993 158.725 32.4793C158.021 32.1593 157.205 31.9993 156.277 31.9993C154.965 31.9993 153.797 32.3513 152.773 33.0553C151.749 33.7593 150.933 34.7353 150.325 35.9833C149.717 37.2313 149.413 38.7033 149.413 40.3993C149.413 42.0953 149.701 43.5673 150.277 44.8153C150.853 46.0633 151.653 47.0393 152.677 47.7433C153.701 48.4473 154.885 48.7993 156.229 48.7993C157.221 48.7993 158.149 48.6073 159.013 48.2233C159.877 47.8393 160.645 47.3433 161.317 46.7353L163.333 49.6633C162.341 50.5913 161.205 51.3273 159.925 51.8713C158.645 52.4153 157.269 52.6873 155.797 52.6873ZM168.18 52.1113V28.6393H177.444C179.204 28.6393 180.74 28.8473 182.052 29.2633C183.364 29.6473 184.404 30.2873 185.172 31.1833C185.94 32.0473 186.324 33.2153 186.324 34.6873C186.324 35.9033 185.988 36.9433 185.316 37.8073C184.644 38.6713 183.684 39.2793 182.436 39.6313V39.8233C183.332 40.0153 184.148 40.3353 184.884 40.7833C185.62 41.2313 186.212 41.8393 186.66 42.6073C187.108 43.3433 187.332 44.2553 187.332 45.3433C187.332 46.9113 186.916 48.2073 186.084 49.2313C185.252 50.2233 184.132 50.9593 182.724 51.4393C181.316 51.8873 179.7 52.1113 177.876 52.1113H168.18ZM172.884 38.1913H176.868C178.564 38.1913 179.78 37.9193 180.516 37.3753C181.284 36.7993 181.668 36.0633 181.668 35.1673C181.668 34.1433 181.3 33.3593 180.564 32.8153C179.86 32.2393 178.692 31.9513 177.06 31.9513H172.884V38.1913ZM172.884 48.7993H177.492C179.252 48.7993 180.532 48.4793 181.332 47.8393C182.164 47.1673 182.58 46.2553 182.58 45.1033C182.58 44.0473 182.132 43.2313 181.236 42.6553C180.372 42.0793 179.044 41.7913 177.252 41.7913H172.884V48.7993ZM202.63 52.6873C200.454 52.6873 198.502 52.2073 196.774 51.2473C195.046 50.2553 193.67 48.8473 192.646 47.0233C191.654 45.1993 191.158 42.9913 191.158 40.3993C191.158 37.8393 191.67 35.6473 192.694 33.8233C193.718 31.9673 195.046 30.5433 196.678 29.5513C198.31 28.5593 200.038 28.0633 201.862 28.0633C203.942 28.0633 205.686 28.5433 207.094 29.5033C208.502 30.4313 209.558 31.7273 210.262 33.3913C210.998 35.0233 211.366 36.9433 211.366 39.1513C211.366 39.5993 211.35 40.0473 211.318 40.4953C211.286 40.9433 211.222 41.3753 211.126 41.7913H194.614V38.0953H207.142C207.142 36.1113 206.71 34.5913 205.846 33.5353C204.982 32.4473 203.686 31.9033 201.958 31.9033C200.966 31.9033 200.006 32.1753 199.078 32.7193C198.15 33.2313 197.382 34.1113 196.774 35.3593C196.166 36.5753 195.862 38.2393 195.862 40.3513C195.862 42.2713 196.198 43.8553 196.87 45.1033C197.542 46.3513 198.438 47.2953 199.558 47.9353C200.678 48.5433 201.878 48.8473 203.158 48.8473C204.246 48.8473 205.254 48.7033 206.182 48.4153C207.142 48.0953 208.022 47.6793 208.822 47.1673L210.502 50.2393C209.446 50.9753 208.246 51.5673 206.902 52.0153C205.59 52.4633 204.166 52.6873 202.63 52.6873ZM216.837 52.1113V28.6393H221.493V37.5673C221.493 38.8473 221.445 40.2073 221.349 41.6473C221.285 43.0553 221.173 44.6073 221.013 46.3033H221.205C221.653 45.4073 222.133 44.4633 222.645 43.4713C223.189 42.4793 223.669 41.6313 224.085 40.9273L231.525 28.6393H236.757V52.1113H232.149V43.1833C232.149 41.9673 232.181 40.6393 232.245 39.1993C232.309 37.7593 232.421 36.1753 232.581 34.4473H232.389C231.973 35.3753 231.493 36.3353 230.949 37.3273C230.437 38.3193 229.957 39.1833 229.509 39.9193L222.069 52.1113H216.837ZM226.965 24.7033C225.173 24.7033 223.717 24.3673 222.597 23.6953C221.477 22.9913 220.661 22.0793 220.149 20.9593C219.637 19.8073 219.333 18.5593 219.237 17.2153H223.077C223.109 18.1113 223.237 18.9273 223.461 19.6633C223.717 20.3993 224.117 20.9753 224.661 21.3913C225.237 21.8073 226.005 22.0153 226.965 22.0153C227.925 22.0153 228.677 21.8073 229.221 21.3913C229.797 20.9753 230.197 20.3993 230.421 19.6633C230.677 18.9273 230.821 18.1113 230.853 17.2153H234.693C234.629 18.5593 234.325 19.8073 233.781 20.9593C233.269 22.0793 232.453 22.9913 231.333 23.6953C230.213 24.3673 228.757 24.7033 226.965 24.7033ZM244.213 52.1113V28.6393H248.965V37.9033H259.237V28.6393H263.989V52.1113H259.237V42.0793H248.965V52.1113H244.213ZM294.017 48.2713C291.009 48.2713 288.417 47.8073 286.241 46.8793C284.097 45.9513 282.433 44.6073 281.249 42.8473C280.097 41.0553 279.521 38.8633 279.521 36.2713C279.521 33.6793 280.097 31.5033 281.249 29.7433C282.433 27.9833 284.097 26.6713 286.241 25.8073C288.417 24.9113 291.009 24.4633 294.017 24.4633H296.129C299.137 24.4633 301.713 24.9113 303.857 25.8073C306.033 26.6713 307.697 27.9833 308.849 29.7433C310.033 31.5033 310.625 33.6793 310.625 36.2713C310.625 38.8633 310.033 41.0553 308.849 42.8473C307.697 44.6073 306.033 45.9513 303.857 46.8793C301.713 47.8073 299.137 48.2713 296.129 48.2713H294.017ZM293.681 44.6233H296.465C299.537 44.6233 301.905 43.9033 303.569 42.4633C305.233 40.9913 306.065 38.9273 306.065 36.2713C306.065 33.5833 305.233 31.5513 303.569 30.1753C301.905 28.7993 299.537 28.1113 296.465 28.1113H293.681C290.641 28.1113 288.273 28.7993 286.577 30.1753C284.913 31.5513 284.081 33.5833 284.081 36.2713C284.081 38.9273 284.913 40.9913 286.577 42.4633C288.273 43.9033 290.641 44.6233 293.681 44.6233ZM292.961 52.6873V20.0953H297.185V52.6873H292.961ZM325.948 52.6873C323.996 52.6873 322.188 52.2073 320.524 51.2473C318.86 50.2873 317.5 48.8953 316.444 47.0713C315.42 45.2153 314.908 42.9913 314.908 40.3993C314.908 37.8073 315.42 35.5993 316.444 33.7753C317.5 31.9193 318.86 30.5113 320.524 29.5513C322.188 28.5593 323.996 28.0633 325.948 28.0633C327.868 28.0633 329.66 28.5593 331.324 29.5513C332.988 30.5113 334.332 31.9193 335.356 33.7753C336.412 35.5993 336.94 37.8073 336.94 40.3993C336.94 42.9913 336.412 45.2153 335.356 47.0713C334.332 48.8953 332.988 50.2873 331.324 51.2473C329.66 52.2073 327.868 52.6873 325.948 52.6873ZM325.948 48.7993C327.196 48.7993 328.268 48.4473 329.164 47.7433C330.092 47.0393 330.796 46.0633 331.276 44.8153C331.788 43.5673 332.044 42.0953 332.044 40.3993C332.044 38.7353 331.788 37.2793 331.276 36.0313C330.796 34.7513 330.092 33.7593 329.164 33.0553C328.268 32.3513 327.196 31.9993 325.948 31.9993C324.7 31.9993 323.612 32.3513 322.684 33.0553C321.788 33.7593 321.084 34.7513 320.572 36.0313C320.06 37.2793 319.804 38.7353 319.804 40.3993C319.804 42.0953 320.06 43.5673 320.572 44.8153C321.084 46.0633 321.788 47.0393 322.684 47.7433C323.612 48.4473 324.7 48.7993 325.948 48.7993ZM342.791 61.7113V28.6393H346.679L347.063 31.2793H347.207C348.231 30.3833 349.367 29.6313 350.615 29.0233C351.863 28.3833 353.143 28.0633 354.455 28.0633C356.439 28.0633 358.119 28.5593 359.495 29.5513C360.871 30.5433 361.911 31.9353 362.615 33.7273C363.351 35.5193 363.719 37.6153 363.719 40.0153C363.719 42.7033 363.239 44.9913 362.279 46.8793C361.351 48.7673 360.119 50.2073 358.583 51.1993C357.047 52.1913 355.399 52.6873 353.639 52.6873C352.615 52.6873 351.559 52.4633 350.471 52.0153C349.415 51.5353 348.391 50.8793 347.399 50.0473L347.543 54.0313V61.7113H342.791ZM352.727 48.7513C353.879 48.7513 354.919 48.4153 355.847 47.7433C356.775 47.0713 357.495 46.0953 358.007 44.8153C358.551 43.5033 358.823 41.9193 358.823 40.0633C358.823 38.4313 358.631 37.0233 358.247 35.8393C357.863 34.6233 357.255 33.6953 356.423 33.0553C355.591 32.3833 354.519 32.0473 353.207 32.0473C352.311 32.0473 351.399 32.2873 350.471 32.7673C349.543 33.2473 348.567 33.9673 347.543 34.9273V46.5433C348.471 47.3433 349.383 47.9193 350.279 48.2713C351.207 48.5913 352.023 48.7513 352.727 48.7513ZM373.802 52.1113V32.4793H366.17V28.6393H386.138V32.4793H378.554V52.1113H373.802ZM400.208 52.6873C398.032 52.6873 396.08 52.2073 394.352 51.2473C392.624 50.2553 391.248 48.8473 390.224 47.0233C389.232 45.1993 388.736 42.9913 388.736 40.3993C388.736 37.8393 389.248 35.6473 390.272 33.8233C391.296 31.9673 392.624 30.5433 394.256 29.5513C395.888 28.5593 397.616 28.0633 399.44 28.0633C401.52 28.0633 403.264 28.5433 404.672 29.5033C406.08 30.4313 407.136 31.7273 407.84 33.3913C408.576 35.0233 408.944 36.9433 408.944 39.1513C408.944 39.5993 408.928 40.0473 408.896 40.4953C408.864 40.9433 408.8 41.3753 408.704 41.7913H392.192V38.0953H404.72C404.72 36.1113 404.288 34.5913 403.424 33.5353C402.56 32.4473 401.264 31.9033 399.536 31.9033C398.544 31.9033 397.584 32.1753 396.656 32.7193C395.728 33.2313 394.96 34.1113 394.352 35.3593C393.744 36.5753 393.44 38.2393 393.44 40.3513C393.44 42.2713 393.776 43.8553 394.448 45.1033C395.12 46.3513 396.016 47.2953 397.136 47.9353C398.256 48.5433 399.456 48.8473 400.736 48.8473C401.824 48.8473 402.832 48.7033 403.76 48.4153C404.72 48.0953 405.6 47.6793 406.4 47.1673L408.08 50.2393C407.024 50.9753 405.824 51.5673 404.48 52.0153C403.168 52.4633 401.744 52.6873 400.208 52.6873Z" fill="#00448B"/>

</symbol>
<symbol id="mail" viewBox="0 0 29 24">
  <path stroke="currentColor" stroke-linecap="round" stroke-linejoin="round" stroke-width="2" d="m27.667 5-11.96 7.6a2.587 2.587 0 0 1-2.747 0L1 5m2.667-4H25a2.667 2.667 0 0 1 2.667 2.667v16A2.667 2.667 0 0 1 25 22.333H3.667A2.667 2.667 0 0 1 1 19.667v-16A2.667 2.667 0 0 1 3.667 1Z"/>
</symbol>
</svg>