<svg width="266" height="183" viewBox="0 0 266 183" fill="none" xmlns="http://www.w3.org/2000/svg">
<g clip-path="url(#clip0_549_4399)">
<path d="M114.088 0H118.586C118.455 2.68884 118.028 5.87017 117.83 8.65529C117.502 13.3647 117.466 18.0899 117.723 22.8036C117.998 27.9015 118.965 32.7085 119.377 37.7536C119.566 40.0765 115.822 41.2372 115.12 37.8715C112.483 25.2404 112.527 12.7493 114.088 0Z" fill="#00448B"/>
<path d="M130.026 4.34912C130.716 4.43 131.599 4.6098 132.3 4.73106C131.979 6.7466 131.731 8.77308 131.557 10.8065C131.105 16.7413 132.091 23.3252 135.909 28.0974C137.217 29.7327 139.045 31.274 140.477 32.9369C142.081 32.0758 143.724 31.2222 145.348 30.3952C146.442 29.8376 148.426 28.5635 149.486 29.4447C149.542 29.7654 149.653 30.1745 149.592 30.4966C149.471 31.1348 143.555 34.3208 142.561 34.9396C143.795 35.4085 149.547 38.2227 147.283 39.95C145.024 39.8842 138.579 34.8702 137.276 32.9023C139.05 43.0611 134.151 47.2706 138.693 57.2103C140.257 56.8523 146.055 55.222 147.144 55.9816C147.355 56.572 147.278 56.4457 147.137 57.1366C146.108 58.3619 142.644 58.4395 140.667 59.2866C142.14 60.9655 143.928 62.1117 145.743 63.4319C145.565 64.1074 145.419 64.8195 145.269 65.5043C138.869 63.2071 136.678 59.1225 134.684 53.118C133.029 55.4442 132.862 57.3657 132.518 60.0889C131.26 70.0334 140.263 76.7333 144.112 84.9333C144.447 85.6485 144.648 86.4673 144.344 87.1996L144.088 87.2394C142.272 86.7107 141.302 84.6621 140.413 83.1062C139.995 84.8746 139.79 86.9726 139.397 88.847C137.846 96.241 136.381 99.0731 138.933 106.386C139.486 107.911 140.13 109.488 140.721 111.006L138.953 112.004C137.065 109.534 135.853 105.182 134.854 102.139C134.274 103.846 132.24 114.085 130.35 113.904C130.21 113.762 130.066 113.61 129.967 113.435C128.539 110.921 133.654 99.128 134.799 95.9711C135.365 94.4116 135.834 92.8347 136.275 91.2367C134.91 92.1254 130.058 95.1878 128.826 93.5611C128.928 91.9127 135.343 89.4322 136.51 87.429C137.308 86.4896 137.127 85.5355 137.18 84.3276C137.505 76.8862 131.69 72.9838 130.774 65.8226C130.038 67.6665 129.52 69.0338 128.949 70.9478C128.497 72.465 127.907 75.836 127.295 76.9772C126.694 77.3095 126.032 77.3147 125.508 76.8854C125.191 75.5762 125.959 71.457 126.301 70.0664C125.022 70.1588 121.415 70.7026 120.891 69.3637C121.853 67.9706 125.232 67.4433 126.917 67.0568C128.188 63.9904 129.282 60.1162 130.214 56.9068C132.899 47.6613 138.843 37.4719 132.091 28.6777C131.496 30.7612 130.78 33.2783 129.712 35.1801C129.3 35.9144 127.819 36.0701 127.187 35.5871C126.915 33.988 130.465 27.9584 130.581 25.8615C130.688 23.9202 129.855 21.2617 129.467 19.3148C128.543 14.684 128.791 8.86777 130.026 4.34912Z" fill="#00448B"/>
<path d="M131.935 129.376C137.466 129.176 132.877 134.961 133.58 138.101C134.229 141.005 137.313 141.077 138.671 143.178C139.553 144.542 138.108 145.761 136.94 146.304C136.849 146.307 136.759 146.309 136.668 146.311C131.928 145.072 128.511 141.264 128.964 136.18C129.208 133.446 129.738 131.256 131.935 129.376Z" fill="#00448B"/>
<path d="M103.137 0H107.786C106.605 11.8911 106.464 23.004 108.199 34.8816C109.757 45.5487 112.918 54.8245 115.562 65.1578C118.941 78.0305 121.271 91.1557 122.529 104.405C123.047 109.716 123.521 114.902 123.291 120.25C123.126 123.706 122.666 127.141 121.917 130.519C121.266 133.493 120.453 136.429 119.48 139.315C118.24 143.046 116.729 146.702 115.642 150.482C113.792 156.913 111.972 167.293 116.635 173.028C118.244 175.007 120.275 176.02 122.812 176.264C133.624 177.304 144.061 171.959 154.781 171.61C162.436 171.362 169.508 173.915 176.97 175.099C186.87 176.67 212.466 178.129 220.237 171.665C221.144 170.912 221.588 170.194 222.024 169.11C221.745 168.537 221.426 167.835 221.124 167.289C217.207 164.66 209.839 164.403 205.16 163.642C199.233 162.679 193.316 161.611 187.739 159.175C176.748 153.966 163.886 146.071 156.66 136.099C153.352 131.594 151.095 126.405 150.056 120.914C148.379 112.331 149.328 99.179 149.843 90.2892C150.411 80.503 151.193 70.7305 152.189 60.9785C154.345 40.043 156.866 21.2224 157.115 0H161.688C161.687 29.9284 155.65 61.0345 154.302 91.0161C153.872 100.576 152.679 113.493 155.124 122.509C156.352 126.922 158.456 131.042 161.311 134.624C168.102 143.236 183.354 153.289 193.715 156.555C196.685 157.465 199.713 158.184 202.776 158.704C208.35 159.629 220.837 160.262 224.522 164.416C225.76 165.813 226.456 167.653 226.335 169.525C226.194 171.675 225.009 173.446 223.421 174.826C213.934 183.072 187.034 181.322 175.318 179.406C168.522 178.295 161.987 175.885 155.009 176.078C144.299 176.374 133.947 181.661 123.121 180.855C119.395 180.578 115.846 179.124 113.375 176.25C111.305 173.843 110.162 170.565 109.638 167.473C107.417 154.368 114.079 143.852 116.995 131.701C119.222 122.42 118.875 113.821 117.965 104.428C116.812 92.139 114.69 79.9598 111.619 68.0048C108.675 56.324 105.375 46.893 103.622 34.7863C101.718 21.6406 102.19 13.0205 103.137 0Z" fill="#00448B"/>
<path d="M179.901 50.653C180.554 50.5772 181.031 50.7799 181.557 51.1451C184.867 53.4365 181.098 56.8964 179.432 58.8991C178.579 59.9261 178.008 60.5103 177.372 61.7259C179.084 63.106 180.793 64.4708 182.394 65.9648C185.042 68.4353 184.18 70.0342 182.078 72.44C180.829 73.8697 179.628 75.1492 178.264 76.4781C180.624 78.87 183.809 80.9487 185.47 83.8005C184.716 86.491 181.236 89.5908 179.464 92.1523C182.032 94.0508 184.969 96.4756 186.541 99.2602C185.899 100.606 184.732 102.755 182.981 102.255C181.2 101.251 172.103 94.4826 172.444 92.0638C172.691 90.3099 176.631 86.1976 178.216 84.789C171.406 76.3265 167.248 80.0788 177.211 69.1572C174.829 67.1993 171.543 64.6514 170.033 62.0305C171.161 59.0557 177.047 52.13 179.901 50.653Z" fill="#00448B"/>
<path d="M80.8724 63.1343C82.7649 62.8279 92.816 69.1395 93.5578 71.2357C93.5664 73.2856 90.2844 77.8851 89.0301 79.7931C95.2404 84.9054 100.148 83.6328 94.1033 92.2573C93.6392 92.9195 92.9182 94.3494 92.498 95.1093C93.939 95.7336 100.419 99.3295 100.251 101.002C99.9429 104.062 95.739 110.528 93.7088 112.733C92.8747 113.389 92.0181 113.808 90.9597 113.387C88.0463 112.23 89.3424 109.337 90.5177 107.377C91.5349 105.682 92.7294 103.902 93.4027 102.065C91.7165 101.289 90.0305 100.231 88.4547 99.3174C86.5232 98.186 84.9869 96.6765 86.0756 94.3187C87.1624 91.9651 88.7313 89.7142 90.1583 87.5582C79.5692 81.2473 80.7568 82.7327 86.4944 72.7591C83.9852 70.3803 74.3148 67.1224 80.8724 63.1343Z" fill="#00448B"/>
</g>
<defs>
<clipPath id="clip0_549_4399">
<rect width="265.539" height="182.71" fill="white"/>
</clipPath>
</defs>
</svg>
