<svg width="243" height="203" viewBox="0 0 243 203" fill="none" xmlns="http://www.w3.org/2000/svg">
<g clip-path="url(#clip0_549_4421)">
<path d="M88.747 13.7402C90.4165 14.6212 94.0945 18.5302 95.4946 19.9673C97.019 18.7991 101.432 15.7414 103.213 16.4826C103.768 18.3828 98.157 21.3128 96.6154 22.1609C96.9454 24.3778 97.2954 26.5917 97.6655 28.8023C98.777 28.9482 101.37 29.1803 101.991 30.1215C102.014 30.8071 101.918 30.9878 101.687 31.608C100.875 32.1382 98.4553 31.3875 97.4164 31.6459C95.2938 32.1741 93.0752 33.2311 91.061 34.1012C91.3644 35.1345 92.5152 37.7486 92.9727 38.9407C97.7287 39.4359 102.837 39.1011 106.701 35.9964L107.306 32.7183C107.947 31.9988 108.616 30.8997 109.598 31.4218C110.191 32.5941 109.476 36.072 109.297 37.5812C110.238 38.5172 111.753 39.0096 111.48 40.6102C111.365 41.2832 111.611 41.3136 111.083 41.7709C107.4 41.5663 111.606 37.7739 101.794 40.6748C102.627 41.8258 103.896 43.5131 103.036 44.9672C101.409 45.6844 100.322 43.0959 99.788 41.9127C97.6637 41.6973 95.7767 41.8173 93.6531 41.8961C94.5929 44.7095 94.8547 46.1889 95.3762 49.1421C97.398 50.1523 101.006 52.0507 103.129 52.4906C104.269 52.7268 108.012 51.6522 109.412 52.6233C109.667 53.2307 109.642 52.9604 109.448 53.6598C108.558 54.5302 105.439 54.9593 104.073 55.2272C103.941 56.9116 104.251 60.9834 102.826 61.917C102.164 61.9871 102.41 62.0424 101.867 61.7606C101.443 61.1477 101.361 60.1991 101.444 59.489C102.254 52.5562 100.222 54.7516 95.3499 51.8372C95.1492 52.9934 95.0112 54.035 94.8708 55.1982L92.3316 55.5343L92.3815 52.0082C92.4433 48.2658 92.0957 46.1277 91.7122 42.4176C89.9527 43.2825 87.6035 45.061 85.6744 46.1543C85.8913 48.6046 85.7601 50.7423 86.2688 53.2465C86.5514 54.6386 88.3729 58.0509 88.0267 58.9926C87.4825 59.3141 87.0804 59.2548 86.4573 59.2438C85.3023 58.7314 84.3479 56.4118 83.724 55.198C82.3164 56.5903 79.157 60.453 77.175 60.2972C76.4727 59.9072 76.6908 60.131 76.3049 59.4732C76.4543 57.9315 81.7069 53.9264 83.0916 52.7558C83.2011 50.9467 83.0823 48.7509 83.0288 46.911C81.9208 47.0036 80.001 47.2836 79.037 46.8674C78.8202 46.3634 78.87 46.5611 78.9876 45.9508C79.9947 44.6694 82.0898 44.8554 83.1164 44.3466C85.2129 43.3075 87.4709 42.0027 89.5713 40.9208C87.4863 40.3075 85.2015 40.3387 83.192 39.5175C81.3291 38.7563 79.6779 37.1239 78.22 35.7551C77.0498 36.3692 73.4921 38.5958 72.395 37.5462C72.2886 36.0215 75.779 33.8903 76.9829 33.0422C77.0279 31.7338 76.6531 27.9151 77.537 27.1219C78.685 26.0918 79.5093 27.7228 79.3532 28.997C78.4102 36.6893 84.3466 37.5911 90.293 38.5999C89.4319 36.541 85.4269 31.1007 85.9304 29.5335C87.4991 28.6501 89.1546 31.3659 89.8723 32.4267C91.4289 31.3049 94.0643 30.209 95.8765 29.3994C94.7897 24.8063 94.5984 22.4707 91.0474 18.9774C89.6159 17.5691 87.9365 15.8035 88.747 13.7402Z" fill="#00448B"/>
<path d="M35.9531 0H42.2874C43.5866 5.0194 46.4733 11.0165 48.3875 15.9327C50.4688 21.2771 52.7232 26.5853 54.8556 31.8873L64.8385 56.585C68.0184 64.6837 71.1293 72.8056 74.5963 80.7836C77.8692 88.3157 85.118 94.8477 86.0913 103.198C86.537 107.023 86.2883 114.034 85.9022 117.99C85.1547 125.653 85.4328 133.465 92.8235 137.953C96.8771 140.415 104.889 142.508 109.48 144.123C111.9 144.975 115.145 145.654 117.369 147.156C119.543 148.623 122.049 151.364 123.948 153.279L133.848 163.211C137.447 166.794 141.475 171.622 146.205 173.651C149.498 175.022 153.469 175.225 156.946 175.18C161.254 175.124 167.522 176.05 169.909 171.461C171.9 167.636 171.828 162.297 167.521 160.087C163.899 158.228 159.672 156.729 157.073 153.555C155.735 151.769 154.388 148.829 153.379 146.75C151.592 143.115 149.875 139.446 148.228 135.746C144.088 126.558 139.65 117.328 135.161 108.3C132.707 103.346 126.948 99.4333 125.37 94.1264C124.18 90.1235 125.472 84.574 125.569 80.3326C125.831 68.9293 122.618 57.7567 120.092 46.684L111.967 11.0238C111.217 7.68818 109.816 3.0884 109.244 0H114.995C115.955 5.28319 117.458 9.75509 118.518 14.7488C121.194 27.3567 124.516 39.6001 126.936 52.2863C127.924 57.4671 129.252 62.3396 130.072 67.6681C130.754 72.102 131.181 74.4866 131.276 79.0594C131.353 82.7359 129.419 89.631 130.508 92.2138C132.468 96.8618 138.207 101.815 140.595 106.614C141.958 109.355 143.186 112.152 144.473 114.89C149.489 125.676 154.782 136.37 159.661 147.213C163.282 155.26 171.869 152.59 175.357 160.883C178.255 167.772 175.632 176.262 168.767 179.559C165.565 181.097 160.444 180.709 156.958 180.842C149.835 181.005 143.056 179.51 137.677 174.566C135.982 173.067 134.354 171.301 132.71 169.703L120.92 158.053C115.055 152.191 115.923 151.856 107.744 149.409C103.161 148.038 97.5418 145.645 92.8707 144.148C88.3809 142.71 83.1498 137.011 81.5024 132.672C77.6793 122.59 82.7613 110.799 79.7215 100.532C78.609 96.8685 75.8614 93.7915 73.8847 90.6035C72.2462 87.9605 69.8646 83.9542 68.6866 81.1285C67.2001 77.5632 65.7759 73.726 64.3312 70.1073L56.2115 49.9656L35.9531 0Z" fill="#00448B"/>
</g>
<defs>
<clipPath id="clip0_549_4421">
<rect width="242.396" height="202.199" fill="white"/>
</clipPath>
</defs>
</svg>
