<svg width="254" height="210" viewBox="0 0 254 210" fill="none" xmlns="http://www.w3.org/2000/svg">
<g clip-path="url(#clip0_549_4408)">
<path d="M106.499 0H110.923H121.251H125.699H131.912H135.684H148.304H150.469H172.863H177.156C177.199 10.5883 176.755 21.173 175.827 31.7208C175.376 37.0407 174.466 42.3893 173.946 47.6945C173.221 55.0789 172.581 62.4837 171.911 69.8758C171.476 74.6672 170.693 79.7623 170.359 84.4992C169.807 92.3457 169.338 100.438 169.129 108.295C169.046 113.708 169.045 119.111 170.561 124.337C174.989 139.606 189.754 148.678 203.125 155.477C206.107 156.993 210.399 157.906 213.744 158.891C221.517 161.177 231.754 159.331 238.129 165.166C240.021 166.987 239.898 169.452 239.793 171.755C238.744 172.711 237.063 175.261 236.218 175.81C227.888 181.222 216.926 180.999 207.377 180.949C202.915 180.927 196.228 180.761 192.011 180.018C183.707 178.557 178.936 176.139 170.087 176.496C162.739 176.792 158.561 178.434 151.595 179.974C146.001 181.21 139.825 180.823 134.162 180.722C130.392 180.7 126.422 181.25 122.685 180.663C116.374 179.673 112.897 173.765 111.847 167.978C109.457 154.799 116.963 143.564 119.55 131.076C120.253 127.815 120.656 124.497 120.751 121.163C120.818 118.735 120.751 116.16 120.991 113.747C121.102 112.636 121.977 112.168 122.865 111.519C123.726 112.108 124.363 112.758 125.111 113.474C126.471 120.699 124.044 133.349 121.553 140.442C118.954 147.842 115.768 155.398 115.798 163.506C115.812 167.116 116.905 171.93 119.641 174.468C122.456 177.08 126.314 176.723 129.918 176.624C120.107 159.552 131.633 145.635 134.602 128.755C135.889 121.442 135.027 114.23 134.798 106.866C132.264 106.844 129.629 106.9 127.208 106.911C118.794 106.95 109.607 107.916 103.231 101.259C102.419 100.411 101.197 99.739 100.679 98.5757C100.556 98.2997 100.35 98.0908 100.135 97.8819C99.2316 100.19 95.0305 104.239 92.879 105.54C95.1766 111.829 94.4247 115.865 88.9812 120.137C92.8382 124.812 95.455 135.903 95.1239 141.911C94.3141 156.619 86.3521 170.171 72.8698 176.689C39.768 192.692 6.09585 161.937 17.0419 127.489C17.6479 125.584 18.6073 124.146 19.4176 122.415C22.8912 114.993 29.1436 108.822 36.4914 105.224C45.4128 100.735 55.7583 99.4235 65.4492 102.166C68.7704 103.096 72.3719 105.037 75.7408 106.234C76.6985 105.063 80.3322 102.409 81.8714 101.914C84.1145 101.191 86.4952 101.166 88.6319 102.206L88.9031 103.092L89.2258 103.245C91.6481 101.121 94.4637 98.3179 96.5143 95.8132C96.8757 93.8106 94.4618 92.5654 93.1809 91.2001C89.3633 87.1225 83.5799 82.9139 81.7413 77.5138C79.4563 70.8032 83.7035 63.1044 90.5004 61.2123C94.5131 59.8253 97.266 60.4092 101.118 62.0941C110.052 65.8969 108.319 79.3662 105.84 86.6638C105.279 88.3135 103.751 88.3182 102.461 87.4658C101.159 85.7026 103.339 79.757 103.628 77.4399C104.04 74.1443 103.847 70.8552 101.682 68.141C100.17 66.2462 97.9867 64.8367 95.5372 64.6068C93.1979 64.3874 91.1356 64.8862 89.332 66.4191C87.2344 68.2021 85.698 70.4926 85.5027 73.3052C85.2932 76.3228 87.0866 78.6522 88.9814 80.818C91.508 83.7063 106.867 99.0982 109.035 100.303C112.308 102.121 115.691 102.452 119.348 102.697C118.907 89.2282 113.679 70.446 109.964 57.4147C104.348 37.7198 103.551 20.2015 106.499 0Z" fill="#00448B"/>
<path d="M125.697 0H131.911H135.683H148.303H150.468H172.862C172.781 9.1593 172.407 18.3137 171.74 27.449C171.27 33.2659 170.404 39.3914 169.782 45.2304C168.099 60.2893 166.687 75.3774 165.547 90.4873L161.146 90.4292C158.485 92.2419 158.891 92.9838 160.949 95.103C162.161 95.1789 163.91 95.1036 165.165 95.0826C164.731 99.6602 164.814 107.842 164.735 112.638C161.97 112.39 158.032 112.491 155.192 112.493L139.45 112.534C139.025 106.67 138.465 100.817 137.772 94.9786C140.954 95.3524 148.702 95.0288 152.005 94.8999C152.578 93.6713 153.114 92.5325 152.351 91.2711C150.71 90.0008 139.507 90.526 136.888 90.5726C135.798 85.2396 134.996 80.0711 133.765 74.7143C131.887 66.5427 129.094 58.2788 127.165 50.2248C124.527 39.1608 123.364 27.7974 123.707 16.4296C123.886 9.94657 125.198 5.81699 125.697 0Z" fill="#E8E8E8"/>
<path d="M148.302 0H150.468C151.156 1.40906 151.001 5.31546 151.047 7.04828C151.208 13.0888 151.494 20.4732 154.48 25.8059C157.158 30.5904 161.587 34.82 167.061 35.858C167.615 35.9629 167.868 36.3555 168.109 36.8187C167.74 38.3747 166.219 38.0877 164.988 38.0205C165.144 41.3852 165.445 42.4487 164.449 45.6946C161.656 41.759 163.302 40.773 161.785 37.1541C161.516 36.5141 157.865 33.8243 156.872 32.9054C157.612 36.2581 158.245 39.2989 158.204 42.7525C158.157 46.7444 157.265 51.3069 158.036 55.2086C158.473 57.424 159.929 60.3632 160.808 62.4716C161.219 63.4586 162.052 65.3271 161.652 66.3313L161.257 66.4203C156.572 63.174 156.501 56.908 155.173 55.5511L154.764 55.6818C152.742 57.7851 151.076 64.4498 151.098 67.6708C153.582 71.6085 153.822 70.9683 156.66 74.0989L154.507 76.0413C152.933 74.3284 152.106 72.6417 150.12 70.5816C148.527 73.5929 148.606 76.2297 147.095 79.0325C146.977 79.2521 146.71 79.2156 146.416 79.2496C145.309 78.7938 145.174 78.0312 145.499 76.9567C146.963 72.1184 148.097 68.0508 148.601 62.9659C144.795 64.6242 142.296 66.4138 138.867 68.6324C138.465 68.8929 138.216 68.7687 137.839 68.6062C137 66.1777 140.878 63.9441 142.631 63.0754C139.652 62.2631 137.282 60.7939 134.777 59.0689L136.423 57.3652C138.194 58.5429 143.249 61.0191 145.318 61.6444C148.374 60.6239 151.675 57.0051 152.849 54.0383C151.315 54.4215 147.115 55.5265 146.143 54.0759C146.684 51.755 152.229 52.5459 155.215 49.3812C157.374 41.6421 155.531 35.2908 152.161 28.4225C151.7 32.4753 150.451 32.764 149.571 35.8813C150.046 38.0275 150.689 40.133 151.306 42.2434L148.698 42.7183C148.203 40.976 148.046 39.4388 147.821 37.6545C146.572 38.7401 143.452 42.0468 141.938 41.0099C141.592 38.833 146.403 35.9468 147.601 33.8042C151.591 26.6685 149.13 20.0296 148.516 12.3942C148.155 8.27284 148.084 4.13131 148.302 0Z" fill="#00448B"/>
<path d="M131.911 0H135.683C136.016 2.33088 135.101 7.6008 134.796 10.1866C134.448 13.1211 134.251 16.0714 134.206 19.0259C134.161 23.2016 134.262 27.3152 134.662 31.4743C135.027 35.2613 135.759 39.2271 136 42.999C135.324 43.5864 135.034 43.9486 134.463 44.6462L132.159 43.631C131.46 41.7479 130.966 37.873 130.704 35.7591C129.117 23.855 129.525 11.7704 131.911 0Z" fill="#00448B"/>
<path d="M110.922 0H121.25C118.051 18.6723 118.702 33.5536 123.109 52.1498C124.013 56.0812 125.326 59.9143 126.344 63.8123C129.57 76.1622 133.07 89.9259 134.082 102.656C130.757 102.467 127.279 102.552 123.954 102.733C122.723 91.1985 120.619 79.7734 117.66 68.5561C115.5 60.3945 112.593 51.7304 111.105 43.4307C109.188 32.7712 108.657 21.9091 109.526 11.1139C109.849 7.35014 110.443 3.73777 110.922 0Z" fill="#E8E8E8"/>
<path d="M51.1877 105.34C70.8063 103.308 88.3697 117.513 90.4451 137.09C92.5205 156.668 78.3247 174.227 58.7144 176.338C39.0478 178.456 21.3943 164.237 19.3128 144.603C17.2314 124.969 31.5129 107.378 51.1877 105.34Z" fill="#E8E8E8"/>
<path d="M53.4362 111.183C56.594 110.867 60.5629 110.8 58.8055 115.211C57.2421 115.42 54.9224 115.413 53.255 115.58C47.7974 116.127 44.1698 117.512 39.7163 120.535C38.8236 121.16 36.3743 122.59 35.4136 121.452C33.3598 119.02 38.707 115.792 40.509 114.859C44.515 112.785 48.9242 111.513 53.4362 111.183Z" fill="#00448B"/>
<path d="M139.804 117.008L164.91 116.956C164.939 117.908 164.995 118.858 165.077 119.807C165.398 123.259 166.19 125.523 167.386 128.719C171.415 139.482 179.291 146.079 188.585 152.206C192.567 154.831 196.842 157.518 201.255 159.488C204.768 161.029 208.338 161.931 212.016 163.009C218.473 164.901 225.649 164.134 231.95 166.427C233.365 166.942 234.81 168.203 235.964 169.159C233.766 173.923 226.383 175.632 221.636 176.121C213.727 176.971 199.812 176.966 191.948 175.535C184.385 174.159 180.673 172.219 171.888 172.081C161.283 171.891 152.707 176.334 142.05 176.667C128.148 177.1 129.587 161.657 132.018 152.342C133.561 146.431 136.421 140.605 137.896 134.509C139.368 128.429 139.829 123.283 139.804 117.008Z" fill="#E8E8E8"/>
<path d="M148.478 130.666C149.179 130.866 150.737 131.913 151.421 132.346C148.07 140.643 148.731 140.044 155.64 145.062L153.618 147.164C153.464 147.311 153.136 147.498 152.923 147.468C144.87 146.36 142.928 135.638 148.478 130.666Z" fill="#00448B"/>
<path d="M84.3415 105.826C86.7939 105.679 88.5369 106.717 89.4244 109.06C89.9609 110.511 89.8883 112.117 89.2227 113.515C88.7916 114.42 87.4211 116.027 86.5016 116.355L86.3093 116.076C83.7317 112.745 82.8849 111.942 79.6367 109.354C80.6372 106.765 81.5886 106.292 84.3415 105.826Z" fill="#E8E8E8"/>
</g>
<defs>
<clipPath id="clip0_549_4408">
<rect width="253.358" height="209.508" fill="white"/>
</clipPath>
</defs>
</svg>
