<svg width="293" height="216" viewBox="0 0 293 216" fill="none" xmlns="http://www.w3.org/2000/svg">
<path d="M195.585 135.05C205.878 134.6 225.924 135.033 231.821 144.948C236.914 153.508 233.64 172.572 231.935 182.086C234.054 181.985 245.701 181.75 246.81 182.586C247.198 182.879 247.406 183.341 247.488 183.811C247.61 184.524 247.551 185.443 247.093 186.031C246.688 186.551 246.029 186.748 245.401 186.816C244.16 186.949 242.818 186.799 241.566 186.801C239.3 186.804 237.032 186.882 234.766 186.897L207.51 186.855L171.224 186.857C163.356 186.89 155.51 186.964 147.632 186.809C145.937 187.008 144.193 185.366 144.85 183.671C145.706 181.461 152.824 181.967 154.901 181.927C152.639 171.843 152.079 165.582 152.685 155.306C149.888 156.572 146.861 157.739 144.006 159.007C139.051 161.245 134.122 163.543 129.222 165.899C115.907 172.122 103.255 177.405 87.8421 179.784C78.2355 181.267 58.6713 183.039 48.4216 179.432C46.8934 178.894 47.8523 175.488 50.3615 175.67C53.8597 175.925 57.5174 176.403 61.1021 176.603C68.9677 176.996 76.8528 176.636 84.6501 175.527C104.173 172.801 121.349 164.718 138.783 156.114C143.246 153.912 147.956 152.391 152.477 150.367C155.637 148.953 158.236 145.269 161.353 143.623C171.852 137.742 183.715 135.626 195.585 135.05Z" fill="#00448B"/>
<path d="M195.892 139.685C204.104 139.246 223.633 139.88 227.993 147.842C231.947 155.061 228.997 173.753 226.863 181.719C222.906 182.194 216.661 182.076 212.635 182.078L190.848 182.075L173.679 182.076C169.144 182.079 164.373 182.181 159.868 181.686C158.022 174.113 153.993 156.411 160.187 150.511C168.069 143.003 185.319 140.212 195.892 139.685Z" fill="#E8E8E8"/>
<path d="M184.084 147.865C185.074 147.711 186.757 147.608 187.57 148.224C188.005 149.133 188.463 151.379 187.155 151.785C181.28 153.611 173.654 154.437 168.672 158.261C168.09 161.626 168.713 165.528 168.954 168.921C169.127 171.36 169.658 172.81 168.395 175.032L167.689 175.373C165.113 175.311 164.595 173.04 164.373 170.931C164.076 168.111 162.891 157.14 164.829 155.223C168.349 151.739 179.15 148.55 184.084 147.865Z" fill="#00448B"/>
<path d="M199.014 146.412C200.635 146.483 202.989 146.858 203.257 148.754C202.561 151.126 199.443 151.253 197.448 151.392C195.809 151.417 193.008 151.362 192.477 149.361C192.599 146.551 197.059 146.521 199.014 146.412Z" fill="#00448B"/>
<path d="M227.054 21.1239C241.961 20.8555 246.252 61.901 246.256 72.6061C246.26 81.899 244.807 90.4281 247.854 99.6656C252.277 113.071 267.011 134.695 247.564 143.191C246.004 143.875 240.376 145.888 238.889 145.213C238.309 144.954 237.872 144.455 237.687 143.846C237.494 143.222 237.612 142.527 237.927 141.964C238.981 140.076 241.953 140.12 243.769 139.584C246.907 138.658 250.049 136.636 251.615 133.683C255.694 125.99 244.74 106.621 242.413 98.0225C240.115 89.5257 241.505 81.3288 241.451 72.7211C241.39 62.7977 239.416 49.4079 236.453 39.9439C235.262 36.1391 232.532 28.1114 228.674 26.1972C228.025 25.8759 227.178 25.7415 226.485 25.9896C226.145 26.1119 225.826 26.3106 225.551 26.5467C223.003 28.738 223.776 35.8892 223.852 39.0499C224.19 53.1657 224.371 60.6933 219.261 74.3408C218.242 77.0602 217.232 79.8144 216.01 82.4495C209.659 96.1274 201.945 105.549 187.43 110.85C182.424 112.754 175.776 113.349 170.482 114.317C161.488 115.96 152.598 116.525 143.519 117.394C134.293 118.359 125.051 119.164 115.798 119.809C106.156 120.435 96.311 120.615 86.7365 121.754C78.0788 122.784 69.4236 123.681 60.7946 124.921C54.3235 125.85 45.486 128.151 39.0685 128.024L39.0437 127.884C38.3483 123.946 38.7327 123.845 42.5721 123.198C46.7438 122.495 50.9417 121.612 55.1417 121.069C66.7499 119.568 78.3153 117.666 89.9819 116.657C95.2582 116.201 100.581 116.027 105.861 115.652C119.519 114.684 133.168 113.592 146.806 112.379C155.669 111.546 163.914 110.236 172.666 109.081C185.158 107.433 195.985 104.32 203.881 93.4966C211.207 83.4555 217.236 69.6097 218.969 57.2227C219.738 51.7342 219.137 45.2866 219.177 39.7586C219.15 32.6487 217.537 22.3507 227.054 21.1239Z" fill="#00448B"/>
<path d="M206.251 7.40239C211.324 7.064 215.661 11.4017 217.908 15.5536C219.645 18.7604 218.687 19.2862 215.976 20.6741C213.196 18.0588 211.272 12.0726 206.975 12.4948C206.319 12.5593 205.272 13.252 205.113 13.9196C203.568 21.1757 204.76 29.1893 204.6 36.7083C204.424 44.9684 203.679 49.7 200.885 57.4939C195.208 73.3269 187.374 89.8035 170.631 96.3144C160.894 100.101 150.438 100.839 140.188 102.171C119.265 104.753 98.1632 105.666 77.166 107.513C66.9763 108.379 58.7276 108.84 48.4623 110.411C45.4246 110.801 32.988 113.237 30.8314 112.551C29.8848 111.689 29.9048 110.175 29.7695 108.899C32.3777 107.942 43.7443 106.286 47.1806 105.783C64.3904 103.263 82.3838 102.276 99.7402 101.135C113.266 100.293 126.763 99.0319 140.211 97.3543C150.338 96.082 162.457 95.0815 171.757 90.5244C186.026 83.3366 192.519 66.9722 197.47 52.7733C202.136 39.3923 197.88 25.9659 200.58 12.5691C201 10.4841 204.367 8.28936 206.251 7.40239Z" fill="#00448B"/>
<path d="M89.0983 127.988C91.7386 127.788 93.0896 130.484 94.5569 132.445C96.2326 132.391 99.3481 131.525 100.605 132.557C100.936 133.155 100.678 133.866 100.528 134.558C98.5692 134.676 96.614 134.851 94.6651 135.084C90.7662 139.196 90.9823 141.504 90.2437 146.603C93.174 145.054 96.9065 141.369 98.7105 140.641L99.0766 140.843C99.8028 143.038 98.2315 143.668 96.794 145.226C97.3734 146.91 99.0409 149.252 100.036 150.923C102.867 150.349 104.603 149.912 107.107 148.46C109.375 147.145 112.029 142.259 114.206 141.805C114.721 142.116 114.541 141.956 114.866 142.565C114.957 144.602 111.421 147.842 109.974 149.693C111.06 151.861 113.552 154.051 114.36 156.418C114.353 156.996 114.262 157.071 113.89 157.524C111.863 157.899 109.762 152.815 107.794 151.662C106.999 151.557 106.359 151.694 105.594 151.873C100.245 153.13 101.5 153.503 100.441 157.85L98.2789 156.86C98.2779 152.143 97.5754 151.076 94.9753 147.134C93.4856 147.698 90.6772 148.532 90.4184 150.355C89.7821 154.838 92.4864 159.242 94.6216 162.927C96.0314 163.175 99.2049 163.478 99.8345 165.004C99.3214 166.544 95.7699 165.595 94.6254 165.331C93.8175 166.133 91.0632 168.843 90.0274 168.135C89.6909 166.623 90.7798 164.999 91.3922 163.519C91.1656 162.646 90.8609 161.965 90.515 161.14L89.3717 158.679C88.4363 159.467 86.9515 160.861 85.6631 160.252C84.9115 158.448 87.3573 156.965 88.5963 156.107C88.4565 154.316 88.1148 152.417 87.8296 150.634C85.4014 151.516 83.2547 151.618 80.5082 152.797C78.7987 155.892 77.7003 159.881 78.1701 163.429C78.3253 164.602 78.7678 166.054 78.6168 167.161C77.9811 167.492 78.0132 167.369 77.19 167.326C76.116 166.741 75.5996 163.924 75.1109 162.5C72.9148 162.349 70.7432 162.619 68.5001 162.281C67.8566 161.733 67.9776 161.986 67.8321 161.312C68.8311 159.798 73.3174 159.92 74.7622 159.52C75.8094 159.229 77.2265 154.314 77.8708 152.774C76.3207 152.599 74.9666 153.049 73.9482 151.999C73.8741 151.355 73.7722 150.895 73.9915 150.276C74.972 149.909 77.8133 150.189 79.2372 149.979C81.9558 149.578 84.0334 148.98 86.6619 148.184C84.8798 145.772 84.7103 145.15 82.355 142.974C80.4319 142.889 77.9506 143.101 76.1011 143.675C74.5713 144.15 71.0583 146.119 69.6613 146.18L69.2816 145.789C68.6856 143.657 71.4142 142.958 72.9129 142.411C71.824 141.001 67.114 136.603 67.1724 135.282C68.7969 134.004 70.8352 136.533 72.0174 137.601C73.2117 138.68 74.3867 139.815 75.5691 140.911C77.5182 140.588 79.2023 140.328 81.18 140.129C80.8385 138.916 79.8886 136.669 80.9454 135.774C83.5827 135.502 82.8908 138.03 83.9496 139.874C85.2244 142.093 86.7667 144.04 88.0453 146.253C88.4491 141.181 88.4254 137.849 92.045 133.96C90.6748 132.116 89.3644 130.344 89.0983 127.988Z" fill="#00448B"/>
<path d="M215.919 116.961C217.981 117.808 219.186 119.325 218.491 121.584C216.368 128.498 210.658 130.387 204.227 128.723C203.938 128.652 202.521 128.162 202.411 128C198.805 122.334 207.234 124.81 209.785 124.454C210.746 124.32 211.149 124.191 211.758 123.441C213.419 121.395 214.249 119.058 215.919 116.961Z" fill="#00448B"/>
<path d="M131.586 182.204C134.283 182.018 136.61 181.855 139.188 182.717C139.497 185.1 139.847 186.229 137.194 186.727C134.181 186.85 132.19 186.877 129.212 186.484C129.105 185.186 129.141 183.849 129.149 182.544C129.884 182.41 130.828 182.309 131.586 182.204Z" fill="#00448B"/>
</svg>
