<svg width="240" height="212" viewBox="0 0 240 212" fill="none" xmlns="http://www.w3.org/2000/svg">
<g clip-path="url(#clip0_549_4372)">
<path d="M97.3809 0H102.352C103.543 3.22596 104.424 7.60566 105.661 11.028C106.65 14.1524 108.021 17.2024 109.114 20.2807C111.639 27.3898 114.289 34.3254 117.602 41.1074C119.406 44.8021 120.822 49.0834 122.653 52.7179C128.138 63.6119 134.185 74.8595 134.025 87.4128C134.152 98.5396 130.567 103.758 127.35 113.939C125.879 119.117 124.276 124.839 126.974 129.901C132.076 139.471 144.74 136.358 153.679 138.796C163.187 141.39 170.33 147.954 175.924 155.856C177.673 158.326 179.185 161.024 181.173 163.258C186.523 169.201 193.423 173.533 201.099 175.766C205.093 176.966 212.422 178.193 216.499 177.007C217.393 176.747 218.463 176.173 219.3 175.724C218.049 174.557 215.922 171.623 214.16 169.946C208.792 164.833 202.19 158.953 197.998 152.803C193.877 146.375 190.557 139.538 187.194 132.678C181.996 122.076 175.97 111.068 171.027 100.414C168.853 95.7297 165.897 85.946 165.209 81.177C166.581 81.2501 168.312 81.2194 169.712 81.2348C171.429 85.5653 172.056 90.4961 173.812 94.9308C175.177 98.379 176.669 101.123 178.297 104.431L187.208 122.169L194.939 137.497C196.48 140.594 197.962 144.106 199.831 147.088C202.42 151.219 205.593 154.779 208.891 158.46C213.241 163.384 220.022 167.208 222.8 173.291C224.294 176.558 222.292 180.111 218.949 181.051C214.371 182.338 209.146 181.837 204.53 181.216C189.352 179.171 178.025 169.04 170.461 156.29C168.838 153.582 162.387 147.946 159.433 146.185C150.643 140.948 139.207 143.618 130.089 139.189C120.721 134.408 119.172 125.348 121.731 115.932C124.324 106.39 128.384 101.383 129.024 90.9722C129.414 85.0309 128.726 79.0679 126.99 73.3725C125.726 69.3309 123.684 65.9241 121.959 62.105C119.093 55.762 116.21 49.4589 113.171 43.1956C111.983 40.6583 111.136 37.8101 109.962 35.2829C104.667 23.8878 101.297 11.9142 97.3809 0Z" fill="#00448B"/>
<path d="M73.6805 0H78.3643C76.3558 6.7068 73.3727 12.8549 70.9983 19.2466C67.221 29.7802 64.4044 41.0662 57.5159 50.1401C52.4205 56.8517 46.2176 61.2971 38.6295 64.9155C32.2534 67.9558 21.6794 71.5394 18.7074 78.5124C15.9801 84.9117 19.3171 91.4755 23.8446 95.928C26.3259 99.1506 29.729 102.693 31.5821 106.243C37.4547 117.492 35.0565 129.314 33.309 141.136C32.7403 147.705 33.8627 155.406 36.4535 161.396C37.8591 164.645 47.0524 178.908 50.7387 177.156C51.2774 176.629 51.6084 175.907 51.6466 175.153C51.7455 168.491 51.4749 161.762 51.574 155.09C51.7374 144.087 55.3966 135.61 58.7428 125.378C61.2742 117.637 63.6063 109.588 66.4825 101.909C68.1236 97.7074 69.1087 92.3254 71.0865 88.3171C74.7605 80.8713 78.9815 73.3409 83.7056 66.5148C86.4298 62.5783 89.51 56.7699 93.0152 53.5982L93.0974 53.5247C95.5154 54.6826 96.1691 56.0025 94.7347 58.5077C92.8104 61.8684 90.0795 64.9279 88.0892 68.2557C84.2348 74.7007 79.7544 80.816 76.6672 87.6806C72.3769 97.3887 69.5836 107.612 66.2608 117.644C61.6304 131.622 55.6668 145.237 56.2623 160.322C56.3581 162.746 56.3176 165.196 56.4394 167.623C56.5064 172.066 57.6011 179.816 52.1216 181.586C46.3044 183.466 40.2802 175.945 37.2325 171.788C30.8926 163.141 27.2653 150.599 28.5298 139.864C30.4878 130.979 32.0217 123.967 29.9169 114.882C26.9457 102.058 12.5116 96.2145 13.2627 82.5095C14.1114 67.0209 31.6981 64.196 42.4001 57.7688C47.5599 54.6702 52.448 49.2273 55.7775 44.2886C59.6416 39.1643 60.943 32.8279 63.2503 26.9966C66.8067 18.0079 69.5745 8.749 73.6805 0Z" fill="#00448B"/>
<path d="M152.271 0H156.71C157.016 2.7585 157.306 5.51884 157.579 8.28088L153.15 8.22628L152.271 0Z" fill="#00448B"/>
<path d="M162.576 12.8043C179.297 11.4599 193.942 23.9318 195.286 40.6619C196.631 57.3919 184.167 72.0454 167.447 73.3922C150.724 74.739 136.077 62.2666 134.732 45.535C133.387 28.8032 145.854 14.1489 162.576 12.8043Z" fill="#00448B"/>
<path d="M162.065 18.1086C175.823 16.5113 188.27 26.3725 189.872 40.1371C191.473 53.9014 181.621 66.3596 167.865 67.9663C154.102 69.5739 141.643 59.7111 140.042 45.9399C138.44 32.1687 148.301 19.7067 162.065 18.1086Z" fill="#E8E8E8"/>
<path d="M163.092 26.3803C172.322 25.3597 180.623 32.0411 181.604 41.2808C182.585 50.5202 175.872 58.7972 166.633 59.7391C157.45 60.6757 149.238 54.008 148.263 44.8238C147.288 35.6394 153.917 27.3947 163.092 26.3803Z" fill="#00448B"/>
<path d="M163.323 31.7227C169.555 30.8207 175.34 35.1374 176.254 41.3711C177.167 47.6048 172.864 53.4016 166.636 54.3276C160.39 55.2563 154.577 50.9363 153.661 44.6856C152.745 38.4349 157.074 32.6272 163.323 31.7227Z" fill="#E8E8E8"/>
<path d="M164.57 39.4927C165.882 39.8224 167.898 40.6857 168.53 41.9768C169.875 44.7257 167.224 45.5128 165.375 46.3821C164.178 46.7068 162.306 45.8096 161.894 44.6145C160.892 41.7055 162.288 40.5791 164.57 39.4927Z" fill="#00448B"/>
<path d="M163.908 41.9387C164.285 41.6415 164.796 41.579 165.233 41.7768C165.67 41.9745 165.961 42.3994 165.987 42.8788C166.013 43.3583 165.77 43.8124 165.357 44.0565C164.775 44.4007 164.025 44.2343 163.643 43.6756C163.261 43.1172 163.376 42.3578 163.908 41.9387Z" fill="#E8E8E8"/>
<path d="M57.4153 68.7688C58.1596 68.6554 59.1606 68.8914 59.6316 69.4717C61.9364 72.3119 58.4585 73.4519 56.3032 74.0952C55.001 74.4839 53.4326 75.0967 52.3784 75.9031C50.3431 77.4596 51.1341 81.8932 49.2314 83.3321C43.9939 82.9803 45.3199 77.6448 47.4574 74.5627C50.0868 70.7711 53.0168 69.5088 57.4153 68.7688Z" fill="#00448B"/>
<path d="M147.908 92.9282C148.265 92.9769 148.621 93.0348 148.976 93.1023C153.314 93.9583 149.417 98.654 148.559 100.742C148.171 101.686 147.976 102.602 147.76 103.598C148.062 104.275 148.132 104.625 148.599 105.251C149.887 106.974 152.922 109.557 149.905 111.273C145.583 112.24 143.662 106.705 143.591 103.281C143.505 99.0822 145.077 95.9296 147.908 92.9282Z" fill="#00448B"/>
</g>
<defs>
<clipPath id="clip0_549_4372">
<rect width="239.96" height="211.944" fill="white"/>
</clipPath>
</defs>
</svg>
