<svg width="122" height="127" viewBox="0 0 122 127" fill="none" xmlns="http://www.w3.org/2000/svg">
<path d="M55.8077 8.76468C85.2556 7.03115 110.537 29.4903 112.284 58.9374C114.032 88.3843 91.5847 113.676 62.1385 115.438C32.6725 117.201 7.35992 94.7351 5.61113 65.2681C3.86232 35.8012 26.34 10.4994 55.8077 8.76468Z" fill="#00448B"/>
<path d="M58.1654 15.1872C61.3808 15.243 64.2553 15.2677 67.4254 15.8621C99.6743 21.9088 116.374 58.4995 98.9841 86.5419C97.5482 88.8572 95.8951 90.8461 94.3792 93.0804C93.7612 92.1525 91.4813 89.9531 90.6203 89.0868L82.4818 81.0021C80.9494 79.4902 78.6044 77.307 77.347 75.663C77.4645 78.6673 77.4381 81.6442 77.4296 84.6499C78.7553 86.937 81.216 88.7083 82.9843 90.6329C85.2087 93.0536 87.386 95.1317 89.8357 97.3273C82.7686 103.871 73.2131 107.64 63.7127 108.704C61.1898 108.986 58.6614 108.941 56.1287 108.885C45.0309 108.318 34.4721 103.58 26.5273 95.9361C23.2871 92.8186 21.8432 90.9671 19.3889 87.2169C9.51323 72.1263 9.41272 52.0566 19.3651 36.9897C20.7949 34.8269 21.7953 33.2661 23.6104 31.3209C29.6277 37.179 35.6114 43.7869 41.8494 49.2802C42.3859 46.8996 42.9497 44.5251 43.5409 42.1574C42.5762 41.2946 41.7213 40.2258 40.8002 39.3077C39.6988 38.2098 38.5815 37.1249 37.4895 36.0182C34.3193 32.8052 31.0297 29.9205 28.1744 26.3962C30.2733 25.299 31.6364 23.8233 33.5468 22.6281C35.2287 21.5061 37.2147 20.7107 38.9651 19.7847C42.9586 17.6723 46.6461 16.6414 51.0826 15.8428C53.6368 15.3832 55.5466 15.2431 58.1654 15.1872Z" fill="white"/>
<path d="M53.319 25.7929C55.9538 25.7979 58.5887 25.7872 61.2235 25.7605C63.0649 25.7476 66.8136 25.3486 68.0169 26.8847C68.2635 27.1985 68.3727 27.5987 68.3197 27.9943C68.1473 29.3155 66.3176 30.5736 65.3 31.346C65.4996 34.4995 67.6328 37.1096 68.6671 40.1753C70.2105 44.7495 71.8289 49.2651 72.5186 54.071C72.9207 56.8738 72.8902 59.7025 72.9349 62.5223C73.0186 66.0774 73.0552 69.6334 73.0445 73.1895C73.0796 81.692 73.0683 90.1946 73.0107 98.6969C70.4074 98.5857 47.6889 98.6704 45.0683 98.6518C38.4459 98.6873 51.6877 98.5684 45.0683 98.6518C44.8026 91.3906 44.925 83.6268 44.9333 76.3325C45.0787 69.4914 44.6166 62.4243 45.3495 55.6243C45.9784 49.7906 47.7886 43.7962 49.8395 38.3243C50.7124 35.9951 52.5113 33.9995 52.5113 31.2373C52.1358 30.9256 51.7632 30.6102 51.3939 30.2912C48.1368 27.4619 49.3229 25.8359 53.319 25.7929Z" fill="#00448B"/>
<path d="M66.6068 66.1764C67.4583 66.1543 68.3096 66.2231 69.1465 66.3813C69.461 68.8455 69.3378 73.6372 69.3377 76.2359L69.3295 94.7386L51.261 94.8117L48.6028 94.8096C48.4839 90.6659 48.5401 86.4122 48.544 82.2556L48.5498 66.9423C51.402 67.1975 55.9211 67.5858 58.7473 67.2171C61.7575 66.8243 63.4059 66.2987 66.6068 66.1764Z" fill="white"/>
</svg>
