<svg width="123" height="127" viewBox="0 0 123 127" fill="none" xmlns="http://www.w3.org/2000/svg">
<path d="M55.5709 10.6517C84.9727 7.65925 111.224 29.0903 114.177 58.496C117.13 87.9018 95.6635 114.125 66.2538 117.038C36.9001 119.945 10.7382 98.5285 7.79105 69.1789C4.84388 39.8292 26.2253 13.6385 55.5709 10.6517Z" fill="#00448B"/>
<path d="M58.0825 17.1086C70.2431 16.5884 80.4337 19.4178 90.1346 27.0066C99.9038 34.6636 106.199 45.9146 107.614 58.2461C108.932 68.7836 106.596 79.4545 100.994 88.4767C99.6357 90.6497 97.8357 92.857 96.2379 94.8946C93.8228 91.5343 92.4052 90.7906 89.7413 88.0962L76.9055 75.1763C76.6685 76.4909 76.509 82.7805 77.0052 84.0501C77.6632 85.7331 81.146 88.4599 82.4915 89.877C85.4276 92.9696 89.2924 96.0704 91.6143 99.6078C90.0969 100.617 88.6156 101.807 87.0555 102.865C80.4754 107.327 72.2141 110.177 64.2328 110.553C62.878 110.66 61.4742 110.642 60.1139 110.629C24.5679 110.278 2.44663 71.1811 20.1586 40.4432C21.7497 37.682 23.9939 35.5038 25.5392 32.7251C26.9037 34.9179 32.5344 39.8576 34.6865 42.0249C37.9819 45.3435 41.5681 49.4691 45.1537 52.32C45.1792 49.4305 45.1757 46.5407 45.143 43.6512C42.1296 39.8427 38.0799 36.8105 34.8529 33.1099C33.2604 31.2836 31.7139 30.4593 30.364 28.1786C31.6651 26.919 33.8319 25.7133 35.3503 24.6781C42.1453 20.0456 49.7783 17.4748 58.0825 17.1086Z" fill="white"/>
<path d="M50.05 42.5938C52.7984 43.2454 56.6422 44.9598 58.5892 47.0931C59.4658 48.0536 59.8835 48.9807 60.9974 49.8755C61.6873 50.1713 62.1508 50.1149 62.6652 49.5217C63.4364 48.6224 64.068 47.6579 64.8745 46.8123C66.8213 44.7711 70.3423 43.1597 73.0802 42.6578C73.0531 47.1156 72.8493 49.3836 69.5058 52.7737C67.8498 54.4527 66.1513 55.1551 63.9857 56.0155C63.6734 56.1396 62.7214 56.5278 62.4283 56.5832C61.69 56.6652 61.4368 56.6714 60.6929 56.6393C58.0908 55.8828 54.4752 53.8953 52.6494 51.8469C49.9857 48.8582 49.8957 46.3133 50.05 42.5938Z" fill="#00448B"/>
<path d="M50.1276 54.1504C50.3578 54.2038 50.587 54.2616 50.8151 54.3236C54.5598 55.3472 58.1057 57.3223 60.0585 60.7638C60.6072 61.3971 62.2011 61.4381 62.844 61.0673L62.9254 60.9529C63.2178 60.4449 63.594 59.754 63.9338 59.294C65.838 56.7169 69.9551 54.7893 73.0278 54.2873C73.1185 58.1446 73.1487 60.3997 70.3145 63.381C67.866 65.9563 65.4962 66.9233 62.2958 68.2546C62.0273 68.3116 61.4301 68.4553 61.1857 68.4774C58.4411 67.3933 54.0376 65.1088 52.2353 62.8809C49.996 60.1129 49.8401 57.4928 50.1276 54.1504Z" fill="#00448B"/>
<path d="M50.2155 76.7012C55.2338 78.8992 57.012 80.0449 60.6798 84.0135C61.336 84.6908 61.9988 84.5435 62.5928 83.9147C65.3425 80.4624 68.628 78.415 72.7648 76.8824C74.4099 84.722 68.891 88.7663 62.3312 91.2005C62.0054 91.2451 61.66 91.2827 61.3418 91.3582C59.9991 91.0848 55.0279 88.3899 53.9358 87.5777C53.2318 87.0636 52.6079 86.448 52.0845 85.7508C49.9864 82.9369 49.7159 80.0427 50.2155 76.7012Z" fill="#00448B"/>
<path d="M50.3482 65.4004C52.6642 66.6536 55.02 67.3709 57.2295 69.0385C58.6267 70.0931 59.9966 72.0056 61.2936 72.8317C61.4825 73.0228 61.801 73.1586 62.0713 73.1278C62.4364 72.9836 62.4701 72.9104 62.6792 72.5898C65.3018 68.3495 68.2957 67.4532 72.8186 65.4944C73.7834 72.571 70.7164 75.8397 64.6617 78.6216C63.9468 78.95 63.1944 79.4432 62.463 79.7184C61.9229 79.7473 61.5085 79.7587 60.9684 79.7419C59.3168 79.2153 57.7587 78.2289 56.2204 77.4527C51.409 75.0254 49.0836 70.8643 50.3482 65.4004Z" fill="#00448B"/>
<path d="M60.809 47.0064C56.5877 42.6972 55.9922 38.6129 59.5373 33.5289C60.1591 32.6372 61.3757 31.3915 62.4176 32.3396C63.8173 33.6135 65.4081 36.6662 65.6515 38.4956C66.1616 42.33 64.5871 44.0941 62.3769 46.9293C61.7526 47.1702 61.4707 47.1842 60.809 47.0064Z" fill="#00448B"/>
<path d="M60.4647 91C61.2504 91.0897 61.7533 91.1223 62.5437 91.129C62.4778 92.5598 62.5242 94.4211 62.5164 95.8871L60.383 95.9288C60.3598 94.2854 60.3871 92.6418 60.4647 91Z" fill="#00448B"/>
<path d="M60.6915 56.6401C61.4354 56.6722 61.6886 56.666 62.4268 56.584C62.4647 57.4784 62.5108 60.2806 62.9255 60.9536L62.8441 61.0681C62.2012 61.4389 60.6073 61.3978 60.0586 60.7645L60.206 60.7406C60.386 60.5288 60.5435 57.319 60.6915 56.6401Z" fill="#00448B"/>
<path d="M60.9694 79.7423C61.5096 79.7591 61.924 79.7477 62.464 79.7188C62.2279 80.2814 62.3391 83.4354 62.5927 83.9138C61.9987 84.5427 61.3359 84.6899 60.6797 84.0127L60.8846 83.6833C60.8492 83.0488 61.0536 79.9268 60.9694 79.7423Z" fill="#00448B"/>
<path d="M61.1869 68.4787C61.4314 68.4566 62.0286 68.3129 62.2971 68.2559C62.2701 69.1219 62.2598 71.8994 62.6807 72.5906C62.4716 72.9112 62.4379 72.9845 62.0728 73.1286C61.8025 73.1595 61.484 73.0237 61.2952 72.8326C61.5388 72.4487 61.2514 71.7806 61.1457 71.3233C60.8705 70.1323 60.9412 69.6483 61.1869 68.4787Z" fill="#00448B"/>
<path d="M60.8086 47.0068C61.4703 47.1846 61.7522 47.1706 62.3765 46.9297C62.2319 47.5087 62.3338 49.0381 62.6637 49.5235C62.1493 50.1166 61.6858 50.1731 60.996 49.8772C61.188 49.7313 61.2037 49.6893 61.3405 49.4858C61.4142 48.6307 61.3834 47.697 60.8086 47.0068Z" fill="#00448B"/>
</svg>
