<svg width="38" height="38" viewBox="0 0 38 38" fill="none" xmlns="http://www.w3.org/2000/svg">
<path d="M0.125231 18.2724C0.850564 21.4618 4.14656 22.1551 9.50122 22.0591C14.8559 21.9631 24.2425 23.2111 27.2612 27.9471C28.7866 30.3364 27.8052 32.6831 25.7572 34.2937C24.4879 35.2964 22.5039 36.1711 21.2879 36.4058C28.7119 35.7551 32.2532 31.4777 32.5732 31.0937C32.8932 30.7097 36.1786 27.4138 32.4452 23.9898C28.5412 20.4058 17.6505 18.8804 11.5279 17.8991C5.40522 16.9178 3.14389 13.5684 2.74922 12.1498C2.31189 10.5711 4.0079 7.92578 4.0079 7.92578C2.65323 9.78178 -0.685435 14.7204 0.125231 18.2724Z" fill="url(#paint0_linear_2001_3792)"/>
<path d="M10.4082 2.31491C10.4082 2.31491 15.3042 -0.0744389 19.0269 1.33356C22.6855 2.70956 23.4642 4.92822 23.6455 5.16289C23.8269 5.39756 29.5229 14.8482 30.6215 16.5442C31.7309 18.2402 35.0482 21.3656 36.2962 21.3869C37.5229 21.4082 37.0962 19.9896 37.0002 19.7656C36.9682 19.6802 35.8695 15.6269 34.2375 13.5469C32.6055 11.4669 29.8109 7.81891 29.0749 6.51758C28.3389 5.21624 27.0375 3.63757 26.5895 3.17891C26.1415 2.72024 24.1895 0.618897 21.1389 0.202897C20.3495 0.0962305 19.5389 0.0322266 18.6855 0.0322266C16.2642 0.0322266 13.5762 0.586909 10.4082 2.31491Z" fill="url(#paint1_linear_2001_3792)"/>
<path opacity="0.8" d="M21.0961 4.16006C15.2401 4.36273 11.6135 5.1414 7.24015 8.00006C3.84815 10.2187 0.893479 15.2427 0.882812 20.4054V20.4161C0.882812 21.1841 0.946815 21.9414 1.08548 22.7094C2.01348 27.8507 4.41348 32.6934 10.4188 35.5414C12.8615 36.6934 15.6668 37.3761 18.5681 37.4081H18.8881C23.0375 37.3761 27.3468 35.9787 31.0055 32.6721C29.8855 33.5787 25.7468 36.3841 20.9255 36.3094C14.7495 36.2134 12.1788 33.0774 10.8028 30.7414C9.48015 28.4907 8.55215 25.4081 9.68281 21.5467C10.1735 19.8721 11.9868 16.6401 14.8668 14.0694C18.5148 10.7947 24.2642 8.8214 28.5415 9.73874C34.2375 10.9654 36.4028 17.4827 36.9895 19.9041C37.1281 20.4587 37.1175 20.8427 37.1175 20.8427C37.1175 20.8427 37.1921 20.5441 37.2348 20.0534C37.3841 18.3254 37.4268 14.0801 35.3361 10.4534C32.5841 5.69608 27.5921 4.14941 22.1628 4.14941C21.8001 4.14941 21.4481 4.14939 21.0961 4.16006Z" fill="url(#paint2_linear_2001_3792)"/>
<path d="M5.1599 5.30133C0.562563 10.2187 0.0612213 15.424 0.0185547 16.6187C0.0612213 15.9147 0.391886 13.7173 2.59989 10.0373C4.72255 6.47467 7.45323 4.21336 8.69056 3.39202C13.9066 -0.0746419 18.3866 0.0213542 18.3866 0.0213542C18.3866 0.0213542 18.1626 0 17.7572 0C15.8052 0.0106667 9.72523 0.426668 5.1599 5.30133Z" fill="url(#paint3_linear_2001_3792)"/>
<defs>
<linearGradient id="paint0_linear_2001_3792" x1="25.3215" y1="35.7803" x2="6.66679" y2="5.50114" gradientUnits="userSpaceOnUse">
<stop stop-color="#FAB942"/>
<stop offset="0.0482" stop-color="#F7A600"/>
<stop offset="0.0807" stop-color="#F8AA02"/>
<stop offset="0.1379" stop-color="#FAB536"/>
<stop offset="0.213" stop-color="#FCC66A"/>
<stop offset="0.3022" stop-color="#FEDDA8"/>
<stop offset="0.3342" stop-color="#FFE5BF"/>
<stop offset="0.5043" stop-color="#FEDBA5"/>
<stop offset="0.6448" stop-color="#FDD494"/>
<stop offset="0.8695" stop-color="#FAB949"/>
<stop offset="0.9761" stop-color="#F7A700"/>
<stop offset="1" stop-color="#F7A700"/>
</linearGradient>
<linearGradient id="paint1_linear_2001_3792" x1="32.0825" y1="23.7382" x2="16.2507" y2="-1.95901" gradientUnits="userSpaceOnUse">
<stop stop-color="#FAB942"/>
<stop offset="0.0482" stop-color="#F7A600"/>
<stop offset="0.0807" stop-color="#F8AA02"/>
<stop offset="0.1379" stop-color="#FAB536"/>
<stop offset="0.213" stop-color="#FCC66A"/>
<stop offset="0.3022" stop-color="#FEDDA8"/>
<stop offset="0.3342" stop-color="#FFE5BF"/>
<stop offset="0.5043" stop-color="#FEDBA5"/>
<stop offset="0.6448" stop-color="#FDD494"/>
<stop offset="0.8695" stop-color="#FAB949"/>
<stop offset="0.9761" stop-color="#F7A700"/>
<stop offset="1" stop-color="#F7A700"/>
</linearGradient>
<linearGradient id="paint2_linear_2001_3792" x1="33.1324" y1="29.0395" x2="-1.0007" y2="6.74631" gradientUnits="userSpaceOnUse">
<stop stop-color="#007FBF"/>
<stop offset="0.2685" stop-color="#3FA1D3"/>
<stop offset="0.3648" stop-color="#00A8E8"/>
<stop offset="0.5171" stop-color="#1D71B8"/>
<stop offset="0.7447" stop-color="#004B97"/>
<stop offset="0.9859" stop-color="#243889"/>
<stop offset="1" stop-color="#243889"/>
</linearGradient>
<linearGradient id="paint3_linear_2001_3792" x1="14.474" y1="-2.30763" x2="2.32616" y2="18.0021" gradientUnits="userSpaceOnUse">
<stop stop-color="#007FBF"/>
<stop offset="0.09" stop-color="#3FA1D3"/>
<stop offset="0.218" stop-color="#00A8E8"/>
<stop offset="0.5171" stop-color="#1D71B8"/>
<stop offset="0.7447" stop-color="#004B97"/>
<stop offset="0.9859" stop-color="#243889"/>
<stop offset="1" stop-color="#243889"/>
</linearGradient>
</defs>
</svg>
