<svg version="1.2" xmlns="http://www.w3.org/2000/svg" viewBox="0 0 397 82" width="397" height="82"><style>.a{fill:#6d8bd0}</style><path class="a" d="m39.6 5.1q0.3 0 0.6 0c2-0.1 4.1 0.2 6 1.1 8.4 4.1 6.3 14.8 6.6 22.5h7.2c4.7 0 8.8-0.3 12.6 3.3 2.3 2.2 3.6 5.3 3.7 8.6 0 3.1-1.3 6.3-3.5 8.4-3.8 3.9-7.9 3.6-12.8 3.5q-3.7 0-7.3 0.1c0.1 2.4 0.1 12.2-0.3 14.2-0.3 1.6-0.9 3.1-1.9 4.5-1.9 2.8-4.5 4.2-7.7 4.8q-1 0-2 0c-13.7 0-11.9-14.2-11.8-23.5-6.9-0.5-14.7 1.7-19.9-3.4-2.3-2.2-3.6-5.2-3.6-8.4 0-3.2 1-6.2 3.2-8.5 3.9-4 8.3-3.6 13.3-3.6q3.5 0.1 7 0c-0.1-2.1 0.1-4.3 0-6.3-0.6-8.2 0.9-16 10.6-17.3zm-10.5 47.4c2.5-0.1 5.2-0.1 7.7 0 4.9 0.1 8.7 0.2 12.4-3.5 6.6-8 3.1-18.8-7.6-20.3-1.6-0.2-3.7 0-5.3 0h-7.3q0.2 11.9 0.1 23.8z"/><path class="a" d="m119.3 19.5c3.4-0.4 6.7-0.2 10 0.6 5.1 1.4 9.8 4.5 12.5 9.2 5.3 9.4 3.4 24.3-6.6 29.9-6 3.4-14.7 4.2-20.1-0.7-0.5-0.5-1.9-1.9-2.5-2.1l-0.2 0.4v19.4h-12.4c0.3-8.6-0.1-17.6 0.1-26.3 0.1-4.7-0.4-9.5 0.5-14.2 1.8-9.7 9.3-15.2 18.7-16.2zm5.6 31.3c0.9-0.3 1.7-0.5 2.5-0.9 6.5-3.3 6.5-15.2 0.1-18.5-2.2-1.1-4.8-1.3-7.3-0.9-11.7 2-10.7 22.9 4.7 20.3z"/><path class="a" d="m284.1 19.5c6.3-1.1 14.9 1.3 19.5 5.8 2.3 2.4 4 5.2 4.9 8.4 1.6 5.5 1.1 20.2 1.1 26.8q-6.2-0.1-12.4 0v-4.5c-1.7 1.7-2.2 2.4-4.2 3.7-1.9 1.2-3.9 1.9-6.1 2.2-11.1 1.3-20.6-6.5-21.7-17.8-1.3-13.3 5.3-23 18.9-24.6zm5 31.4c6.6-1.3 9-6.6 7.9-12.9-1.1-6.3-6.1-8.2-11.8-7.5-2.4 0.4-4.5 1.3-5.9 3.4-3 4.3-2.7 12.1 1.8 15.3 2.6 1.8 5.1 1.9 8 1.7z"/><path class="a" d="m168.1 19.5q0.3 0 0.5-0.1c30.2-3.2 34.1 39.5 5.4 42.4-0.2 0.1-0.4 0.1-0.5 0.1-12.3 0.9-23.3-5.5-24.5-18.6-1.2-12.9 6.2-22.6 19.1-23.8zm5.4 31.3c2.4-0.6 5-1.9 6.1-4.2 4.1-8.8-0.5-17.7-10.5-16.1-9 1.4-10.5 13.4-4.1 18.8 2.2 1.8 5.8 1.8 8.5 1.5z"/><path class="a" d="m220 20.7c2 0.3 12.9 0.3 15.5 0.2 7.3-0.2 16.6 0.3 23.7-0.2v8.9c-1.2 1.3-2.9 2.7-4.2 4-5.9 5.5-11.8 11.2-17.9 16.5 7.7 0 15.4 0.1 23.1 0q0 5.2 0 10.4c-5-0.2-10.7-0.1-15.8-0.1l-24.9 0.1v-9c6.6-6.3 15.1-14.4 22-20.3q-10.8-0.1-21.6 0.1 0-5.3 0.1-10.6z"/><path class="a" d="m198.9 5.1h12.6q-0.2 14.6-0.1 29.3-0.1 13 0.1 26.1-6.3-0.1-12.5 0c-0.2-5.7 0-12 0-17.7z"/><path class="a" d="m350.8 20.8c1.9 0.1 4.2 0.1 6-0.1v22.5c0 3.2 0.3 5.8 2.2 8.5 4 5.7 13.3 6.2 18.2 1.2 1.4-1.5 2.4-3.3 2.8-5.4 0.6-2.5 0.4-7.7 0.4-10.5q0-8.1-0.1-16.2c2.1 0.1 4.3 0.1 6.3-0.1v5.4 13.2c0 2.4 0.1 5.9-0.2 8.2-0.2 1.8-0.7 3.5-1.4 5.1-6.4 13.3-29 12.2-33.6-2-1.5-4.9-0.6-11.9-0.8-17.2-0.1-1.6-0.3-11.7 0.2-12.6z"/><path class="a" d="m342.4 20.8c1.5-0.3 1.3 1.1 1.3 2.2q0 1.6 0 3.2c-9.7 0.1-15.9-1.7-15.9 11.7 0 1.8 0 3.7 0 5.5l0.1 17.1c-1.7-0.1-3.4 0-5.1 0l-0.9-0.1c-0.3-0.3-0.5-0.9-0.4-1.3 0.2-2.7 0-5.4 0.1-8 0.2-6.4-0.6-13.5 0.6-19.7 0.4-2.2 1.7-4.9 3.2-6.5 4.9-5 10.8-3.9 17-4.1z"/></svg>