<svg width="265" height="56" viewBox="0 0 265 56" fill="none" xmlns="http://www.w3.org/2000/svg">
<path d="M74.9739 23.0205C75.2191 23.2459 89.0111 52.8599 90.0002 55.4802C88.6517 55.4431 87.0926 55.4869 85.7278 55.4923C84.5012 52.9488 83.3489 50.3356 82.1291 47.7764C79.9908 47.6214 77.1687 47.6988 74.9844 47.7016C72.6501 47.6789 70.3155 47.6925 67.9817 47.7422C66.7442 50.2144 65.5338 52.9596 64.4198 55.491C62.968 55.4862 61.5162 55.4715 60.0645 55.447C61.1833 52.7204 62.7178 49.6197 63.9704 46.9018L71.033 31.5843C72.1319 29.2162 74.1038 25.3384 74.9739 23.0205ZM69.6075 44.0582L75.2401 44.0714L80.4331 44.0667C79.7821 42.1803 78.4082 39.428 77.5883 37.5065C77.0727 36.2978 75.617 32.8649 74.9817 31.8285C73.5737 35.6349 71.3808 40.3669 69.6075 44.0582Z" fill="#1E1E1D"/>
<path d="M201.528 23.1353C202.232 24.3479 203.065 26.2702 203.671 27.5733L207.72 36.3899L213.064 47.93C214.174 50.3147 215.535 53.0664 216.49 55.4679L212.2 55.4965C210.967 52.9293 209.873 50.3031 208.612 47.7552C206.296 47.6593 203.769 47.7038 201.437 47.7028C199.127 47.697 196.756 47.6628 194.452 47.7511C193.216 50.2777 192.048 52.9302 190.868 55.4918C189.428 55.4714 187.968 55.482 186.527 55.4809C187.085 53.9895 188.201 51.7826 188.889 50.2775L194.082 39.0469L198.715 28.9851C199.583 27.1058 200.529 24.9253 201.528 23.1353ZM196.049 44.0668L201.565 44.0726L206.976 44.0653C205.709 41.2938 204.468 38.5102 203.255 35.7149C202.878 34.861 201.932 32.5852 201.517 31.8722C199.79 35.7455 197.894 40.3032 196.049 44.0668Z" fill="#1E1E1D"/>
<path d="M48.5037 24.3384L63.7489 24.3311L63.7696 28.0209L52.5271 28.0336L52.5302 36.6093C56.0949 36.6586 59.7482 36.6194 63.3199 36.6207L63.3172 40.239C62.0806 40.191 60.6098 40.2206 59.3549 40.2143C57.0794 40.1965 54.8036 40.2097 52.5285 40.2538L52.5165 55.4913L48.4844 55.4854L48.5037 24.3384Z" fill="#1E1E1D"/>
<path d="M32.0598 24.3356L36.0596 24.3276L36.0445 51.6963C39.156 51.7444 42.363 51.7056 45.4818 51.7052C45.4874 52.9672 45.477 54.2291 45.4511 55.4909C41.0039 55.435 36.4564 55.4617 32.0063 55.4772C32.2264 45.2024 31.8322 34.6297 32.0598 24.3356Z" fill="#1E1E1D"/>
<path d="M112.702 24.3312L116.698 24.3296C116.874 32.5143 116.604 40.7927 116.716 48.9871C116.744 51.0727 116.794 53.4156 116.662 55.4864L112.701 55.4875C112.586 51.5008 112.677 47.1732 112.677 43.1456L112.702 24.3312Z" fill="#1E1E1D"/>
<path d="M226.337 0H226.439H262.999V0.604232V1.97434L250.244 23.7216L246.865 29.5049C246.324 30.4216 245.526 31.8763 244.88 32.6665C244.375 33.1517 228.384 41.9525 227.568 42.2276C227.051 41.8942 217.309 21.7846 216.263 19.6656L212.927 12.8814C212.614 12.2378 211.6 10.2427 211.449 9.63571C212.011 9.41086 214.804 7.42218 215.57 6.91412C219.096 4.57599 222.841 2.33969 226.337 0Z" fill="#D6BA8C"/>
<path d="M226.439 0H262.999V0.604232L264.127 0L262.999 1.97434L250.244 23.7216L246.865 29.5049C246.324 30.4216 245.526 31.8763 244.88 32.6665L241.133 26.0535C240.613 25.1376 239.622 23.285 239.018 22.5625L239.048 22.3267C238.684 21.5136 237.788 20.105 237.339 19.2585C235.7 16.1682 233.522 12.8846 232.008 9.76965L231.917 9.72043C230.899 8.07404 229.862 6.01512 228.841 4.3139C228.254 3.33764 226.819 0.903379 226.439 0Z" fill="#A28D66"/>
<path d="M226.439 0H262.999H264.127L262.999 0.604232C257.761 3.49987 251.677 7.07073 246.44 9.73628C242.007 9.90898 236.521 9.77388 232.008 9.76965L231.917 9.72043C230.899 8.07404 229.862 6.01512 228.841 4.3139C228.254 3.33764 226.819 0.903379 226.439 0Z" fill="#1E1E1D"/>
<path d="M232.008 9.7697C236.521 9.77393 242.008 9.90903 246.44 9.73633C245.694 11.1874 244.79 12.7538 243.922 14.1484C242.274 16.7993 240.797 19.7633 239.048 22.3268C238.685 21.5136 237.788 20.105 237.34 19.2586C235.7 16.1682 233.522 12.8846 232.008 9.7697Z" fill="#E4201C"/>
<path d="M239.02 22.5635C239.624 23.286 240.614 25.1386 241.135 26.0545L244.882 32.6675C244.377 33.1527 228.386 41.9535 227.57 42.2286C231.198 35.7003 235.503 29.0977 239.02 22.5635Z" fill="#1E1E1D"/>
<path d="M226.337 0H226.439C226.819 0.903379 228.254 3.33764 228.841 4.3139C229.862 6.01512 230.899 8.07404 231.917 9.72043C230.564 9.5653 226.877 9.6651 225.268 9.66686C220.661 9.6903 216.056 9.67992 211.449 9.63571C212.011 9.41086 214.804 7.42218 215.57 6.91412C219.096 4.57599 222.841 2.33969 226.337 0Z" fill="#A28D66"/>
<path d="M179.213 23.0097C180.798 30.6477 182.325 38.2978 183.79 45.9594C184.268 48.4951 185.377 53.1835 185.567 55.4832L181.475 55.4872C180.66 48.9764 178.733 41.5914 177.889 35.0397C174.707 41.7262 171.855 49.3918 168.583 55.9997H168.454C165.041 49.3524 162.287 41.7864 159.105 34.9739C158.839 37.2895 158.252 39.9696 157.835 42.2948L155.464 55.4856L151.402 55.4726C151.774 52.7855 152.359 50.3994 152.864 47.7582C153.892 42.3133 154.958 36.8758 156.064 31.446L157.115 26.1722C157.283 25.3543 157.651 23.7767 157.726 23.0044C158.764 24.9042 159.996 27.9505 160.887 29.9889L165.932 41.4661C166.61 43.0104 167.768 45.8762 168.53 47.2144L175.899 30.4677C176.971 28.0459 178.066 25.3688 179.213 23.0097Z" fill="#1E1E1D"/>
<path d="M15.0801 22.9668C16.2052 25.0857 17.2567 27.5247 18.2652 29.7187L22.8059 39.5442C25.089 44.5095 28.1095 50.5331 30.1355 55.4796L25.7384 55.4957C25.1861 54.1274 22.8854 48.933 22.169 47.7346C18.025 47.6807 12.2026 47.5439 8.13125 47.7624C7.65559 48.4119 4.78293 54.5747 4.48685 55.4915L1.14678 55.479H0L1.14678 53.1459C4.02306 47.2867 6.8557 40.849 9.60053 34.897L12.8742 27.7849C13.5689 26.2975 14.4866 24.4712 15.0801 22.9668ZM9.70288 44.0709L15.5308 44.0715C17.1348 44.0677 19.0376 44.1126 20.6169 44.0464C19.8791 42.6836 15.3974 32.1094 15.0459 31.8719C13.7719 35.4842 11.2251 40.3968 9.70288 44.0709Z" fill="#1E1E1D"/>
<path d="M133.43 56.0001C132.321 55.6514 131.185 55.4633 130.115 55.0023C122.153 51.5741 118.281 42.995 120.899 34.8673C122.208 30.8145 125.087 27.4422 128.903 25.4913C135.422 22.1623 144.765 23.774 149.135 29.794C148.312 30.6389 147.242 31.6939 146.34 32.4722C145.548 31.6074 144.86 30.8476 143.939 30.1063C139.211 26.3001 132.694 26.5858 128.205 30.6346C125.721 32.8709 124.25 36.0035 124.123 39.3264C123.661 49.2246 135.388 56.8853 143.265 49.4292C145.064 47.7261 146.086 45.9146 146.313 43.4495L138.233 43.45C138.233 42.2265 138.206 40.8962 138.238 39.6819L150.787 39.6822C150.722 44.6467 149.946 48.566 146.223 52.2205C143.516 54.877 141.732 54.9721 138.551 56.0001H133.43Z" fill="#1E1E1D"/>
<path d="M93.7094 46.5349C93.8759 49.9449 96.4657 52.5012 99.9599 52.3249C101.467 52.2474 102.88 51.5731 103.881 50.4536C105.839 48.2924 106.115 44.5283 103.65 42.6189C99.5752 39.4621 91.5407 38.9124 91.0895 32.4417C90.935 30.3714 91.6169 28.3253 92.985 26.7533C94.7052 24.8076 97.0009 23.9595 99.5606 23.7887C103.47 23.5278 106.56 25.1256 108.528 28.5107C107.462 29.1567 106.393 29.7966 105.32 30.4304C104.23 28.9694 103.371 27.881 101.444 27.5715C98.7863 27.1441 95.6763 28.4907 95.1735 31.3266C94.647 34.2978 98.4337 35.8694 100.595 36.6055C106.268 38.538 110.341 41.7159 109.26 48.1711C108.927 50.6068 107.744 52.5873 105.721 54.1248C104.222 55.2643 103.201 55.4321 101.497 55.9999H97.3591C92.9528 54.4478 90.338 52.0913 89.6523 47.2872C91.0018 47.021 92.3542 46.7703 93.7094 46.5349Z" fill="#1E1E1D"/>
</svg>
