<svg width="908" height="191" viewBox="0 0 908 191" fill="none" xmlns="http://www.w3.org/2000/svg">
<path d="M0 187.899V18.6089H52.0871C63.3769 18.6089 73.4693 19.9874 82.3643 22.7442C91.2593 25.3288 98.1872 29.7226 103.148 35.9256C108.28 41.9562 110.845 50.0546 110.845 60.2206C110.845 68.8358 108.793 76.5034 104.687 83.2233C100.582 89.7709 94.6805 94.3369 86.9829 96.9215V97.9554C97.0753 99.8507 105.115 104.072 111.102 110.62C117.089 117.167 120.083 126.041 120.083 137.241C120.083 148.785 117.346 158.262 111.872 165.671C106.398 173.08 98.7859 178.68 89.0356 182.471C79.4563 186.089 68.4231 187.899 55.9359 187.899H0ZM25.6587 89.4263H48.7515C61.7519 89.4263 71.16 87.1001 76.976 82.4479C82.792 77.7957 85.6999 71.5065 85.6999 63.5805C85.6999 54.6207 82.6209 48.2454 76.4628 44.4547C70.4758 40.664 61.4953 38.7686 49.5212 38.7686H25.6587V89.4263ZM25.6587 167.48H52.8569C66.3704 167.48 76.7194 165.068 83.9038 160.244C91.2593 155.247 94.9371 147.493 94.9371 136.982C94.9371 127.333 91.3449 120.269 84.1604 115.789C76.976 111.309 66.5415 109.069 52.8569 109.069H25.6587V167.48Z" fill="#6284A8"/>
<path d="M202.138 191C190.506 191 180.072 188.415 170.835 183.246C161.597 177.905 154.242 170.323 148.768 160.502C143.465 150.681 140.814 138.792 140.814 124.835C140.814 111.051 143.551 99.2476 149.025 89.4263C154.499 79.4326 161.597 71.765 170.321 66.4235C179.045 61.0821 188.282 58.4114 198.033 58.4114C209.152 58.4114 218.474 60.9959 226.001 66.1651C233.527 71.1619 239.172 78.1403 242.935 87.1001C246.87 95.8877 248.837 106.226 248.837 118.115C248.837 120.527 248.751 122.94 248.58 125.352C248.409 127.764 248.067 130.09 247.554 132.33H159.288V112.429H226.257C226.257 101.746 223.948 93.5616 219.329 87.8755C214.711 82.0171 207.783 79.088 198.546 79.088C193.243 79.088 188.111 80.5525 183.151 83.4817C178.19 86.2386 174.085 90.977 170.835 97.6969C167.584 104.244 165.959 113.204 165.959 124.576C165.959 134.915 167.756 143.444 171.348 150.164C174.94 156.884 179.73 161.967 185.717 165.413C191.704 168.687 198.118 170.323 204.961 170.323C210.777 170.323 216.165 169.548 221.126 167.997C226.257 166.274 230.961 164.034 235.238 161.277L244.218 177.819C238.573 181.782 232.159 184.969 224.974 187.382C217.961 189.794 210.349 191 202.138 191Z" fill="#6284A8"/>
<path d="M329.656 191C318.195 191 307.931 188.415 298.865 183.246C289.799 177.905 282.615 170.323 277.312 160.502C272.009 150.681 269.358 138.792 269.358 124.835C269.358 110.878 272.18 98.9892 277.825 89.1678C283.641 79.1741 291.253 71.5927 300.661 66.4235C310.07 61.0821 320.162 58.4114 330.939 58.4114C339.149 58.4114 346.248 59.7898 352.235 62.5467C358.222 65.3036 363.44 68.7497 367.887 72.885L355.571 88.9093C352.663 86.1525 349.242 83.9125 345.307 82.1894C341.544 80.4664 337.182 79.6049 332.222 79.6049C325.208 79.6049 318.965 81.5002 313.491 85.2909C308.017 89.0816 303.655 94.3369 300.405 101.057C297.155 107.777 295.53 115.703 295.53 124.835C295.53 133.967 297.069 141.893 300.148 148.613C303.227 155.333 307.504 160.588 312.978 164.379C318.451 168.17 324.781 170.065 331.965 170.065C337.268 170.065 342.228 169.031 346.847 166.963C351.466 164.896 355.571 162.225 359.163 158.951L369.94 174.717C364.637 179.714 358.564 183.677 351.722 186.606C344.88 189.535 337.524 191 329.656 191Z" fill="#6284A8"/>
<path d="M395.851 187.899V61.5129H445.372C454.78 61.5129 462.991 62.6328 470.005 64.8728C477.018 66.9405 482.577 70.3866 486.683 75.2111C490.788 79.8633 492.841 86.1525 492.841 94.0785C492.841 100.626 491.045 106.226 487.452 110.878C483.86 115.53 478.729 118.804 472.057 120.7V121.733C476.847 122.767 481.209 124.49 485.143 126.903C489.078 129.315 492.242 132.589 494.637 136.724C497.032 140.687 498.229 145.598 498.229 151.456C498.229 159.899 496.005 166.877 491.558 172.391C487.11 177.733 481.123 181.696 473.597 184.28C466.07 186.692 457.432 187.899 447.682 187.899H395.851ZM420.997 112.946H442.293C451.359 112.946 457.859 111.481 461.794 108.552C465.899 105.451 467.952 101.488 467.952 96.6631C467.952 91.1493 465.985 86.9278 462.05 83.9986C458.287 80.8972 452.044 79.3464 443.32 79.3464H420.997V112.946ZM420.997 170.065H445.629C455.037 170.065 461.879 168.342 466.156 164.896C470.603 161.277 472.827 156.367 472.827 150.164C472.827 144.478 470.432 140.084 465.643 136.982C461.024 133.881 453.925 132.33 444.346 132.33H420.997V170.065Z" fill="#6284A8"/>
<path d="M580.002 191C568.37 191 557.936 188.415 548.699 183.246C539.461 177.905 532.106 170.323 526.632 160.502C521.329 150.681 518.678 138.792 518.678 124.835C518.678 111.051 521.415 99.2476 526.889 89.4263C532.362 79.4326 539.461 71.765 548.185 66.4235C556.909 61.0821 566.146 58.4114 575.897 58.4114C587.016 58.4114 596.338 60.9959 603.865 66.1651C611.391 71.1619 617.036 78.1403 620.799 87.1001C624.734 95.8877 626.701 106.226 626.701 118.115C626.701 120.527 626.615 122.94 626.444 125.352C626.273 127.764 625.931 130.09 625.418 132.33H537.152V112.429H604.121C604.121 101.746 601.812 93.5616 597.193 87.8755C592.575 82.0171 585.647 79.088 576.41 79.088C571.107 79.088 565.975 80.5525 561.015 83.4817C556.054 86.2386 551.949 90.977 548.699 97.6969C545.448 104.244 543.823 113.204 543.823 124.576C543.823 134.915 545.62 143.444 549.212 150.164C552.804 156.884 557.594 161.967 563.581 165.413C569.568 168.687 575.982 170.323 582.825 170.323C588.641 170.323 594.029 169.548 598.99 167.997C604.121 166.274 608.825 164.034 613.102 161.277L622.082 177.819C616.437 181.782 610.023 184.969 602.838 187.382C595.825 189.794 588.213 191 580.002 191Z" fill="#6284A8"/>
<path d="M655.946 187.899V61.5129H680.835V109.586C680.835 116.478 680.578 123.801 680.065 131.555C679.723 139.136 679.124 147.493 678.269 156.625H679.295C681.69 151.801 684.256 146.718 686.993 141.376C689.901 136.035 692.467 131.469 694.69 127.678L734.461 61.5129H762.429V187.899H737.797V139.825C737.797 133.278 737.968 126.127 738.31 118.373C738.652 110.62 739.251 102.091 740.106 92.7862H739.08C736.856 97.783 734.29 102.952 731.382 108.294C728.645 113.635 726.079 118.287 723.685 122.25L683.914 187.899H655.946ZM710.086 40.3194C700.506 40.3194 692.723 38.5102 686.736 34.8918C680.749 31.101 676.387 26.1904 673.65 20.1597C670.913 13.9567 669.288 7.2368 668.775 0H689.302C689.473 4.82454 690.157 9.21831 691.355 13.1813C692.723 17.1443 694.861 20.2458 697.769 22.4858C700.848 24.7258 704.954 25.8457 710.086 25.8457C715.217 25.8457 719.237 24.7258 722.145 22.4858C725.224 20.2458 727.362 17.1443 728.56 13.1813C729.928 9.21831 730.698 4.82454 730.869 0H751.396C751.054 7.2368 749.429 13.9567 746.521 20.1597C743.784 26.1904 739.422 31.101 733.435 34.8918C727.448 38.5102 719.665 40.3194 710.086 40.3194Z" fill="#6284A8"/>
<path d="M802.286 187.899V61.5129H827.688V111.395H882.598V61.5129H908V187.899H882.598V133.881H827.688V187.899H802.286Z" fill="#6284A8"/>
</svg>
