<svg width="239" height="53" viewBox="0 0 239 53" fill="none" xmlns="http://www.w3.org/2000/svg">
<path d="M99.8415 39.4356L79.2312 39.438L105.553 4.03296C106.135 3.24104 105.975 2.1208 105.195 1.52981C104.895 1.30177 104.53 1.17745 104.155 1.17471L66.0765 1.17909C62.7155 1.17947 59.9901 3.94895 59.9898 7.36442C59.9894 10.7799 62.7141 13.5487 66.0751 13.5484L83.1982 13.5464L56.7777 48.9681C56.1872 49.7411 56.3248 50.8541 57.0852 51.454C57.3969 51.6999 57.7816 51.8309 58.1756 51.8258L99.8401 51.821C103.197 51.6433 105.777 48.7339 105.602 45.3229C105.441 42.1601 102.954 39.6332 99.8415 39.4691V39.4356ZM232.915 1.15991C229.553 1.16029 226.829 3.92978 226.828 7.34524L226.826 28.0884L193.932 1.5659C193.186 0.946991 192.087 1.06032 191.478 1.81878C191.221 2.13888 191.083 2.54037 191.086 2.95359L191.081 45.593C191.081 49.0085 193.805 51.7768 197.166 51.7764C200.527 51.776 203.253 49.0071 203.253 45.5916L203.256 24.8485L236.15 51.3877C236.915 51.9971 238.021 51.8604 238.62 51.083C238.862 50.769 238.995 50.382 238.995 49.9833L239 7.34384C239 3.92838 236.276 1.15952 232.915 1.15991ZM145.881 40.6002C131.965 40.6018 121.554 33.1481 121.555 26.4789C121.556 19.8097 131.969 12.3542 145.884 12.3526C159.8 12.351 170.211 19.8041 170.21 26.4733C170.209 33.1425 159.829 40.5986 145.881 40.6002ZM145.886 3.40084e-07C125.736 0.00231846 109.401 11.8549 109.399 26.4803C109.398 41.1057 125.73 52.9551 145.88 52.9527C166.029 52.9504 182.364 41.0973 182.365 26.4719C182.367 11.8465 166.035 -0.00231778 145.886 3.40084e-07ZM26.0858 40.6307C18.4006 40.6411 12.1637 34.3183 12.1552 26.5082C12.1473 18.6986 18.3708 12.3594 26.0559 12.3496C33.7411 12.3392 39.978 18.662 39.9865 26.4715L39.9865 26.4883C39.9856 34.2917 33.7648 40.6209 26.0858 40.6307ZM26.0903 0.0137715C11.6918 0.00595887 0.0104132 11.8613 7.68802e-06 26.4929C-0.0109312 41.125 11.6529 52.9922 26.0514 53C40.4499 53.0073 52.1313 41.1524 52.1417 26.5203C52.1417 26.5092 52.1417 26.498 52.1417 26.4869C52.1433 11.8648 40.4799 0.0121146 26.0903 0.0137715Z" fill="#005BFF"/>
</svg>
