<svg width="411" height="75" viewBox="0 0 411 75" fill="none" xmlns="http://www.w3.org/2000/svg">
<path d="M0.248475 36.2537C1.68763 42.5818 8.22731 43.9575 18.8517 43.767C29.476 43.5765 48.1004 46.0527 54.0898 55.4495C57.1163 60.1903 55.1692 64.8463 51.1057 68.0421C48.5872 70.0315 44.6507 71.767 42.238 72.2326C56.9681 70.9416 63.9946 62.4548 64.6295 61.6929C65.2645 60.931 71.783 54.3913 64.3755 47.5977C56.6295 40.4866 35.021 37.46 22.8728 35.513C10.7247 33.5659 6.23789 26.9204 5.45482 24.1056C4.58709 20.9733 7.95219 15.7246 7.95219 15.7246C5.26436 19.4072 -1.35999 29.2061 0.248475 36.2537Z" fill="url(#paint0_linear_2001_1493)"/>
<path d="M20.6504 4.59262C20.6504 4.59262 30.3647 -0.148162 37.751 2.64549C45.0102 5.37566 46.5552 9.77778 46.915 10.2434C47.2748 10.709 58.5764 29.4604 60.7563 32.8255C62.9573 36.1906 69.5394 42.3916 72.0155 42.434C74.4494 42.4763 73.6029 39.6614 73.4124 39.217C73.3489 39.0477 71.169 31.0054 67.9309 26.8784C64.6928 22.7514 59.1478 15.5133 57.6875 12.9313C56.2272 10.3492 53.6452 7.21696 52.7563 6.3069C51.8674 5.39685 47.9944 1.22751 41.9414 0.402109C40.3753 0.190469 38.7668 0.0634766 37.0737 0.0634766C32.2694 0.0634766 26.9361 1.16404 20.6504 4.59262Z" fill="url(#paint1_linear_2001_1493)"/>
<path opacity="0.8" d="M41.8559 8.25452C30.2368 8.65664 23.0411 10.2016 14.3638 15.8736C7.63362 20.2757 1.77116 30.244 1.75 40.4874V40.5086C1.75 42.0324 1.87699 43.535 2.15212 45.0588C3.9934 55.2599 8.75531 64.8684 20.6707 70.5192C25.5172 72.8049 31.0834 74.1594 36.84 74.2229H37.4749C45.7078 74.1594 54.258 71.3869 61.5173 64.8261C59.2951 66.625 51.0834 72.1912 41.5173 72.043C29.2633 71.8526 24.1627 65.6303 21.4326 60.9954C18.8082 56.5298 16.967 50.4134 19.2103 42.752C20.1839 39.4292 23.7818 33.0165 29.4961 27.9159C36.7342 21.4186 48.1416 17.5032 56.6284 19.3233C67.93 21.7572 72.2263 34.6884 73.3903 39.4927C73.6654 40.5932 73.6443 41.3551 73.6443 41.3551C73.6443 41.3551 73.7925 40.7626 73.8771 39.789C74.1734 36.3604 74.2581 27.9371 70.1099 20.7414C64.6496 11.3022 54.7448 8.2334 43.9723 8.2334C43.2527 8.2334 42.5543 8.23335 41.8559 8.25452Z" fill="url(#paint2_linear_2001_1493)"/>
<path d="M10.2382 10.5185C1.11649 20.2752 0.121766 30.6033 0.0371094 32.9736C0.121766 31.5768 0.777848 27.217 5.15881 19.9154C9.37046 12.8466 14.7885 8.35985 17.2435 6.73022C27.5927 -0.148099 36.4816 0.0423695 36.4816 0.0423695C36.4816 0.0423695 36.0372 0 35.233 0C31.3599 0.0211641 19.2964 0.846565 10.2382 10.5185Z" fill="url(#paint3_linear_2001_1493)"/>
<path d="M94.128 52.1113V20.6713H103.872C105.984 20.6713 107.872 20.9273 109.536 21.4393C111.2 21.9193 112.496 22.7353 113.424 23.8873C114.384 25.0073 114.864 26.5113 114.864 28.3993C114.864 29.9993 114.48 31.4233 113.712 32.6713C112.944 33.8873 111.84 34.7353 110.4 35.2153V35.4073C112.288 35.7593 113.792 36.5433 114.912 37.7593C116.032 38.9753 116.592 40.6233 116.592 42.7033C116.592 44.8473 116.08 46.6073 115.056 47.9833C114.032 49.3593 112.608 50.3993 110.784 51.1033C108.992 51.7753 106.928 52.1113 104.592 52.1113H94.128ZM98.928 33.8233H103.248C105.68 33.8233 107.44 33.3913 108.528 32.5273C109.616 31.6633 110.16 30.4953 110.16 29.0233C110.16 27.3593 109.584 26.1753 108.432 25.4713C107.312 24.7673 105.632 24.4153 103.392 24.4153H98.928V33.8233ZM98.928 48.3193H104.016C106.544 48.3193 108.48 47.8713 109.824 46.9753C111.2 46.0473 111.888 44.6073 111.888 42.6553C111.888 40.8633 111.216 39.5513 109.872 38.7193C108.528 37.8873 106.576 37.4713 104.016 37.4713H98.928V48.3193ZM131.942 52.6873C129.766 52.6873 127.814 52.2073 126.086 51.2473C124.358 50.2553 122.982 48.8473 121.958 47.0233C120.966 45.1993 120.47 42.9913 120.47 40.3993C120.47 37.8393 120.982 35.6473 122.006 33.8233C123.03 31.9673 124.358 30.5433 125.99 29.5513C127.622 28.5593 129.35 28.0633 131.174 28.0633C133.254 28.0633 134.998 28.5433 136.406 29.5033C137.814 30.4313 138.87 31.7273 139.574 33.3913C140.31 35.0233 140.678 36.9433 140.678 39.1513C140.678 39.5993 140.662 40.0473 140.63 40.4953C140.598 40.9433 140.534 41.3753 140.438 41.7913H123.926V38.0953H136.454C136.454 36.1113 136.022 34.5913 135.158 33.5353C134.294 32.4473 132.998 31.9033 131.27 31.9033C130.278 31.9033 129.318 32.1753 128.39 32.7193C127.462 33.2313 126.694 34.1113 126.086 35.3593C125.478 36.5753 125.174 38.2393 125.174 40.3513C125.174 42.2713 125.51 43.8553 126.182 45.1033C126.854 46.3513 127.75 47.2953 128.87 47.9353C129.99 48.5433 131.19 48.8473 132.47 48.8473C133.558 48.8473 134.566 48.7033 135.494 48.4153C136.454 48.0953 137.334 47.6793 138.134 47.1673L139.814 50.2393C138.758 50.9753 137.558 51.5673 136.214 52.0153C134.902 52.4633 133.478 52.6873 131.942 52.6873ZM155.797 52.6873C153.653 52.6873 151.733 52.2073 150.037 51.2473C148.341 50.2553 146.997 48.8473 146.005 47.0233C145.013 45.1993 144.517 42.9913 144.517 40.3993C144.517 37.8073 145.045 35.5993 146.101 33.7753C147.189 31.9193 148.613 30.5113 150.373 29.5513C152.133 28.5593 154.021 28.0633 156.037 28.0633C157.573 28.0633 158.901 28.3193 160.021 28.8313C161.141 29.3433 162.117 29.9833 162.949 30.7513L160.645 33.7273C160.101 33.2153 159.461 32.7993 158.725 32.4793C158.021 32.1593 157.205 31.9993 156.277 31.9993C154.965 31.9993 153.797 32.3513 152.773 33.0553C151.749 33.7593 150.933 34.7353 150.325 35.9833C149.717 37.2313 149.413 38.7033 149.413 40.3993C149.413 42.0953 149.701 43.5673 150.277 44.8153C150.853 46.0633 151.653 47.0393 152.677 47.7433C153.701 48.4473 154.885 48.7993 156.229 48.7993C157.221 48.7993 158.149 48.6073 159.013 48.2233C159.877 47.8393 160.645 47.3433 161.317 46.7353L163.333 49.6633C162.341 50.5913 161.205 51.3273 159.925 51.8713C158.645 52.4153 157.269 52.6873 155.797 52.6873ZM168.18 52.1113V28.6393H177.444C179.204 28.6393 180.74 28.8473 182.052 29.2633C183.364 29.6473 184.404 30.2873 185.172 31.1833C185.94 32.0473 186.324 33.2153 186.324 34.6873C186.324 35.9033 185.988 36.9433 185.316 37.8073C184.644 38.6713 183.684 39.2793 182.436 39.6313V39.8233C183.332 40.0153 184.148 40.3353 184.884 40.7833C185.62 41.2313 186.212 41.8393 186.66 42.6073C187.108 43.3433 187.332 44.2553 187.332 45.3433C187.332 46.9113 186.916 48.2073 186.084 49.2313C185.252 50.2233 184.132 50.9593 182.724 51.4393C181.316 51.8873 179.7 52.1113 177.876 52.1113H168.18ZM172.884 38.1913H176.868C178.564 38.1913 179.78 37.9193 180.516 37.3753C181.284 36.7993 181.668 36.0633 181.668 35.1673C181.668 34.1433 181.3 33.3593 180.564 32.8153C179.86 32.2393 178.692 31.9513 177.06 31.9513H172.884V38.1913ZM172.884 48.7993H177.492C179.252 48.7993 180.532 48.4793 181.332 47.8393C182.164 47.1673 182.58 46.2553 182.58 45.1033C182.58 44.0473 182.132 43.2313 181.236 42.6553C180.372 42.0793 179.044 41.7913 177.252 41.7913H172.884V48.7993ZM202.63 52.6873C200.454 52.6873 198.502 52.2073 196.774 51.2473C195.046 50.2553 193.67 48.8473 192.646 47.0233C191.654 45.1993 191.158 42.9913 191.158 40.3993C191.158 37.8393 191.67 35.6473 192.694 33.8233C193.718 31.9673 195.046 30.5433 196.678 29.5513C198.31 28.5593 200.038 28.0633 201.862 28.0633C203.942 28.0633 205.686 28.5433 207.094 29.5033C208.502 30.4313 209.558 31.7273 210.262 33.3913C210.998 35.0233 211.366 36.9433 211.366 39.1513C211.366 39.5993 211.35 40.0473 211.318 40.4953C211.286 40.9433 211.222 41.3753 211.126 41.7913H194.614V38.0953H207.142C207.142 36.1113 206.71 34.5913 205.846 33.5353C204.982 32.4473 203.686 31.9033 201.958 31.9033C200.966 31.9033 200.006 32.1753 199.078 32.7193C198.15 33.2313 197.382 34.1113 196.774 35.3593C196.166 36.5753 195.862 38.2393 195.862 40.3513C195.862 42.2713 196.198 43.8553 196.87 45.1033C197.542 46.3513 198.438 47.2953 199.558 47.9353C200.678 48.5433 201.878 48.8473 203.158 48.8473C204.246 48.8473 205.254 48.7033 206.182 48.4153C207.142 48.0953 208.022 47.6793 208.822 47.1673L210.502 50.2393C209.446 50.9753 208.246 51.5673 206.902 52.0153C205.59 52.4633 204.166 52.6873 202.63 52.6873ZM216.837 52.1113V28.6393H221.493V37.5673C221.493 38.8473 221.445 40.2073 221.349 41.6473C221.285 43.0553 221.173 44.6073 221.013 46.3033H221.205C221.653 45.4073 222.133 44.4633 222.645 43.4713C223.189 42.4793 223.669 41.6313 224.085 40.9273L231.525 28.6393H236.757V52.1113H232.149V43.1833C232.149 41.9673 232.181 40.6393 232.245 39.1993C232.309 37.7593 232.421 36.1753 232.581 34.4473H232.389C231.973 35.3753 231.493 36.3353 230.949 37.3273C230.437 38.3193 229.957 39.1833 229.509 39.9193L222.069 52.1113H216.837ZM226.965 24.7033C225.173 24.7033 223.717 24.3673 222.597 23.6953C221.477 22.9913 220.661 22.0793 220.149 20.9593C219.637 19.8073 219.333 18.5593 219.237 17.2153H223.077C223.109 18.1113 223.237 18.9273 223.461 19.6633C223.717 20.3993 224.117 20.9753 224.661 21.3913C225.237 21.8073 226.005 22.0153 226.965 22.0153C227.925 22.0153 228.677 21.8073 229.221 21.3913C229.797 20.9753 230.197 20.3993 230.421 19.6633C230.677 18.9273 230.821 18.1113 230.853 17.2153H234.693C234.629 18.5593 234.325 19.8073 233.781 20.9593C233.269 22.0793 232.453 22.9913 231.333 23.6953C230.213 24.3673 228.757 24.7033 226.965 24.7033ZM244.213 52.1113V28.6393H248.965V37.9033H259.237V28.6393H263.989V52.1113H259.237V42.0793H248.965V52.1113H244.213ZM294.017 48.2713C291.009 48.2713 288.417 47.8073 286.241 46.8793C284.097 45.9513 282.433 44.6073 281.249 42.8473C280.097 41.0553 279.521 38.8633 279.521 36.2713C279.521 33.6793 280.097 31.5033 281.249 29.7433C282.433 27.9833 284.097 26.6713 286.241 25.8073C288.417 24.9113 291.009 24.4633 294.017 24.4633H296.129C299.137 24.4633 301.713 24.9113 303.857 25.8073C306.033 26.6713 307.697 27.9833 308.849 29.7433C310.033 31.5033 310.625 33.6793 310.625 36.2713C310.625 38.8633 310.033 41.0553 308.849 42.8473C307.697 44.6073 306.033 45.9513 303.857 46.8793C301.713 47.8073 299.137 48.2713 296.129 48.2713H294.017ZM293.681 44.6233H296.465C299.537 44.6233 301.905 43.9033 303.569 42.4633C305.233 40.9913 306.065 38.9273 306.065 36.2713C306.065 33.5833 305.233 31.5513 303.569 30.1753C301.905 28.7993 299.537 28.1113 296.465 28.1113H293.681C290.641 28.1113 288.273 28.7993 286.577 30.1753C284.913 31.5513 284.081 33.5833 284.081 36.2713C284.081 38.9273 284.913 40.9913 286.577 42.4633C288.273 43.9033 290.641 44.6233 293.681 44.6233ZM292.961 52.6873V20.0953H297.185V52.6873H292.961ZM325.948 52.6873C323.996 52.6873 322.188 52.2073 320.524 51.2473C318.86 50.2873 317.5 48.8953 316.444 47.0713C315.42 45.2153 314.908 42.9913 314.908 40.3993C314.908 37.8073 315.42 35.5993 316.444 33.7753C317.5 31.9193 318.86 30.5113 320.524 29.5513C322.188 28.5593 323.996 28.0633 325.948 28.0633C327.868 28.0633 329.66 28.5593 331.324 29.5513C332.988 30.5113 334.332 31.9193 335.356 33.7753C336.412 35.5993 336.94 37.8073 336.94 40.3993C336.94 42.9913 336.412 45.2153 335.356 47.0713C334.332 48.8953 332.988 50.2873 331.324 51.2473C329.66 52.2073 327.868 52.6873 325.948 52.6873ZM325.948 48.7993C327.196 48.7993 328.268 48.4473 329.164 47.7433C330.092 47.0393 330.796 46.0633 331.276 44.8153C331.788 43.5673 332.044 42.0953 332.044 40.3993C332.044 38.7353 331.788 37.2793 331.276 36.0313C330.796 34.7513 330.092 33.7593 329.164 33.0553C328.268 32.3513 327.196 31.9993 325.948 31.9993C324.7 31.9993 323.612 32.3513 322.684 33.0553C321.788 33.7593 321.084 34.7513 320.572 36.0313C320.06 37.2793 319.804 38.7353 319.804 40.3993C319.804 42.0953 320.06 43.5673 320.572 44.8153C321.084 46.0633 321.788 47.0393 322.684 47.7433C323.612 48.4473 324.7 48.7993 325.948 48.7993ZM342.791 61.7113V28.6393H346.679L347.063 31.2793H347.207C348.231 30.3833 349.367 29.6313 350.615 29.0233C351.863 28.3833 353.143 28.0633 354.455 28.0633C356.439 28.0633 358.119 28.5593 359.495 29.5513C360.871 30.5433 361.911 31.9353 362.615 33.7273C363.351 35.5193 363.719 37.6153 363.719 40.0153C363.719 42.7033 363.239 44.9913 362.279 46.8793C361.351 48.7673 360.119 50.2073 358.583 51.1993C357.047 52.1913 355.399 52.6873 353.639 52.6873C352.615 52.6873 351.559 52.4633 350.471 52.0153C349.415 51.5353 348.391 50.8793 347.399 50.0473L347.543 54.0313V61.7113H342.791ZM352.727 48.7513C353.879 48.7513 354.919 48.4153 355.847 47.7433C356.775 47.0713 357.495 46.0953 358.007 44.8153C358.551 43.5033 358.823 41.9193 358.823 40.0633C358.823 38.4313 358.631 37.0233 358.247 35.8393C357.863 34.6233 357.255 33.6953 356.423 33.0553C355.591 32.3833 354.519 32.0473 353.207 32.0473C352.311 32.0473 351.399 32.2873 350.471 32.7673C349.543 33.2473 348.567 33.9673 347.543 34.9273V46.5433C348.471 47.3433 349.383 47.9193 350.279 48.2713C351.207 48.5913 352.023 48.7513 352.727 48.7513ZM373.802 52.1113V32.4793H366.17V28.6393H386.138V32.4793H378.554V52.1113H373.802ZM400.208 52.6873C398.032 52.6873 396.08 52.2073 394.352 51.2473C392.624 50.2553 391.248 48.8473 390.224 47.0233C389.232 45.1993 388.736 42.9913 388.736 40.3993C388.736 37.8393 389.248 35.6473 390.272 33.8233C391.296 31.9673 392.624 30.5433 394.256 29.5513C395.888 28.5593 397.616 28.0633 399.44 28.0633C401.52 28.0633 403.264 28.5433 404.672 29.5033C406.08 30.4313 407.136 31.7273 407.84 33.3913C408.576 35.0233 408.944 36.9433 408.944 39.1513C408.944 39.5993 408.928 40.0473 408.896 40.4953C408.864 40.9433 408.8 41.3753 408.704 41.7913H392.192V38.0953H404.72C404.72 36.1113 404.288 34.5913 403.424 33.5353C402.56 32.4473 401.264 31.9033 399.536 31.9033C398.544 31.9033 397.584 32.1753 396.656 32.7193C395.728 33.2313 394.96 34.1113 394.352 35.3593C393.744 36.5753 393.44 38.2393 393.44 40.3513C393.44 42.2713 393.776 43.8553 394.448 45.1033C395.12 46.3513 396.016 47.2953 397.136 47.9353C398.256 48.5433 399.456 48.8473 400.736 48.8473C401.824 48.8473 402.832 48.7033 403.76 48.4153C404.72 48.0953 405.6 47.6793 406.4 47.1673L408.08 50.2393C407.024 50.9753 405.824 51.5673 404.48 52.0153C403.168 52.4633 401.744 52.6873 400.208 52.6873Z" fill="#00448B"/>
<defs>
<linearGradient id="paint0_linear_2001_1493" x1="50.2412" y1="70.9916" x2="13.2278" y2="10.9138" gradientUnits="userSpaceOnUse">
<stop stop-color="#FAB942"/>
<stop offset="0.0482" stop-color="#F7A600"/>
<stop offset="0.0807" stop-color="#F8AA02"/>
<stop offset="0.1379" stop-color="#FAB536"/>
<stop offset="0.213" stop-color="#FCC66A"/>
<stop offset="0.3022" stop-color="#FEDDA8"/>
<stop offset="0.3342" stop-color="#FFE5BF"/>
<stop offset="0.5043" stop-color="#FEDBA5"/>
<stop offset="0.6448" stop-color="#FDD494"/>
<stop offset="0.8695" stop-color="#FAB949"/>
<stop offset="0.9761" stop-color="#F7A700"/>
<stop offset="1" stop-color="#F7A700"/>
</linearGradient>
<linearGradient id="paint1_linear_2001_1493" x1="63.6551" y1="47.0992" x2="32.2427" y2="-3.8874" gradientUnits="userSpaceOnUse">
<stop stop-color="#FAB942"/>
<stop offset="0.0482" stop-color="#F7A600"/>
<stop offset="0.0807" stop-color="#F8AA02"/>
<stop offset="0.1379" stop-color="#FAB536"/>
<stop offset="0.213" stop-color="#FCC66A"/>
<stop offset="0.3022" stop-color="#FEDDA8"/>
<stop offset="0.3342" stop-color="#FFE5BF"/>
<stop offset="0.5043" stop-color="#FEDBA5"/>
<stop offset="0.6448" stop-color="#FDD494"/>
<stop offset="0.8695" stop-color="#FAB949"/>
<stop offset="0.9761" stop-color="#F7A700"/>
<stop offset="1" stop-color="#F7A700"/>
</linearGradient>
<linearGradient id="paint2_linear_2001_1493" x1="65.7374" y1="57.6187" x2="-1.98714" y2="13.386" gradientUnits="userSpaceOnUse">
<stop stop-color="#007FBF"/>
<stop offset="0.2685" stop-color="#3FA1D3"/>
<stop offset="0.3648" stop-color="#00A8E8"/>
<stop offset="0.5171" stop-color="#1D71B8"/>
<stop offset="0.7447" stop-color="#004B97"/>
<stop offset="0.9859" stop-color="#243889"/>
<stop offset="1" stop-color="#243889"/>
</linearGradient>
<linearGradient id="paint3_linear_2001_1493" x1="28.7186" y1="-4.57864" x2="4.61571" y2="35.7186" gradientUnits="userSpaceOnUse">
<stop stop-color="#007FBF"/>
<stop offset="0.09" stop-color="#3FA1D3"/>
<stop offset="0.218" stop-color="#00A8E8"/>
<stop offset="0.5171" stop-color="#1D71B8"/>
<stop offset="0.7447" stop-color="#004B97"/>
<stop offset="0.9859" stop-color="#243889"/>
<stop offset="1" stop-color="#243889"/>
</linearGradient>
</defs>
</svg>
